<?xml version="1.0" encoding="utf-8" standalone="no"?>
<!DOCTYPE svg PUBLIC "-//W3C//DTD SVG 1.1//EN"
  "http://www.w3.org/Graphics/SVG/1.1/DTD/svg11.dtd">
<svg xmlns:xlink="http://www.w3.org/1999/xlink" width="756pt" height="396pt" viewBox="0 0 756 396" xmlns="http://www.w3.org/2000/svg" version="1.1">
 <metadata>
  <rdf:RDF xmlns:dc="http://purl.org/dc/elements/1.1/" xmlns:cc="http://creativecommons.org/ns#" xmlns:rdf="http://www.w3.org/1999/02/22-rdf-syntax-ns#">
   <cc:Work>
    <dc:type rdf:resource="http://purl.org/dc/dcmitype/StillImage"/>
    <dc:date>2026-07-24T01:46:02.590339</dc:date>
    <dc:format>image/svg+xml</dc:format>
    <dc:creator>
     <cc:Agent>
      <dc:title>Matplotlib v3.11.0, https://matplotlib.org/</dc:title>
     </cc:Agent>
    </dc:creator>
   </cc:Work>
  </rdf:RDF>
 </metadata>
 <defs>
  <style type="text/css">*{stroke-linejoin: round; stroke-linecap: butt}</style>
 </defs>
 <g id="figure_1">
  <g id="patch_1">
   <path d="M 0 396 
L 756 396 
L 756 0 
L 0 0 
z
" style="fill: #ffffff"/>
  </g>
  <g id="axes_1">
   <g id="patch_2">
    <path d="M 53.722344 353.877656 
L 745.2 353.877656 
L 745.2 26.16 
L 53.722344 26.16 
z
" style="fill: #ffffff"/>
   </g>
   <g id="matplotlib.axis_1">
    <g id="xtick_1">
     <g id="line2d_1">
      <path d="M 107.037246 353.877656 
L 107.037246 26.16 
" clip-path="url(#pa7c5263e30)" style="fill: none; stroke: #b0b0b0; stroke-opacity: 0.18; stroke-width: 0.8; stroke-linecap: square"/>
     </g>
     <g id="line2d_2">
      <defs>
       <path id="mfb49eff293" d="M 0 0 
L 0 3.5 
" style="stroke: #000000; stroke-width: 0.8"/>
      </defs>
      <g>
       <use xlink:href="#mfb49eff293" x="107.037246" y="353.877656" style="stroke: #000000; stroke-width: 0.8"/>
      </g>
     </g>
     <g id="text_1">
      <!-- 1750 -->
      <g transform="translate(94.312246 368.475312) scale(0.1 -0.1)">
       <defs>
        <path id="DejaVuSans-14" d="M 794 531 
L 1825 531 
L 1825 4091 
L 703 3866 
L 703 4441 
L 1819 4666 
L 2450 4666 
L 2450 531 
L 3481 531 
L 3481 0 
L 794 0 
L 794 531 
z
" transform="scale(0.015625)"/>
        <path id="DejaVuSans-1a" d="M 525 4666 
L 3525 4666 
L 3525 4397 
L 1831 0 
L 1172 0 
L 2766 4134 
L 525 4134 
L 525 4666 
z
" transform="scale(0.015625)"/>
        <path id="DejaVuSans-18" d="M 691 4666 
L 3169 4666 
L 3169 4134 
L 1269 4134 
L 1269 2991 
Q 1406 3038 1543 3061 
Q 1681 3084 1819 3084 
Q 2600 3084 3056 2656 
Q 3513 2228 3513 1497 
Q 3513 744 3044 326 
Q 2575 -91 1722 -91 
Q 1428 -91 1123 -41 
Q 819 9 494 109 
L 494 744 
Q 775 591 1075 516 
Q 1375 441 1709 441 
Q 2250 441 2565 725 
Q 2881 1009 2881 1497 
Q 2881 1984 2565 2268 
Q 2250 2553 1709 2553 
Q 1456 2553 1204 2497 
Q 953 2441 691 2322 
L 691 4666 
z
" transform="scale(0.015625)"/>
        <path id="DejaVuSans-13" d="M 2034 4250 
Q 1547 4250 1301 3770 
Q 1056 3291 1056 2328 
Q 1056 1369 1301 889 
Q 1547 409 2034 409 
Q 2525 409 2770 889 
Q 3016 1369 3016 2328 
Q 3016 3291 2770 3770 
Q 2525 4250 2034 4250 
z
M 2034 4750 
Q 2819 4750 3233 4129 
Q 3647 3509 3647 2328 
Q 3647 1150 3233 529 
Q 2819 -91 2034 -91 
Q 1250 -91 836 529 
Q 422 1150 422 2328 
Q 422 3509 836 4129 
Q 1250 4750 2034 4750 
z
" transform="scale(0.015625)"/>
       </defs>
       <use xlink:href="#DejaVuSans-14"/>
       <use xlink:href="#DejaVuSans-1a" transform="translate(63.625 0)"/>
       <use xlink:href="#DejaVuSans-18" transform="translate(127.25 0)"/>
       <use xlink:href="#DejaVuSans-13" transform="translate(190.875 0)"/>
      </g>
     </g>
    </g>
    <g id="xtick_2">
     <g id="line2d_3">
      <path d="M 192.201656 353.877656 
L 192.201656 26.16 
" clip-path="url(#pa7c5263e30)" style="fill: none; stroke: #b0b0b0; stroke-opacity: 0.18; stroke-width: 0.8; stroke-linecap: square"/>
     </g>
     <g id="line2d_4">
      <g>
       <use xlink:href="#mfb49eff293" x="192.201656" y="353.877656" style="stroke: #000000; stroke-width: 0.8"/>
      </g>
     </g>
     <g id="text_2">
      <!-- 2000 -->
      <g transform="translate(179.476656 368.475312) scale(0.1 -0.1)">
       <defs>
        <path id="DejaVuSans-15" d="M 1228 531 
L 3431 531 
L 3431 0 
L 469 0 
L 469 531 
Q 828 903 1448 1529 
Q 2069 2156 2228 2338 
Q 2531 2678 2651 2914 
Q 2772 3150 2772 3378 
Q 2772 3750 2511 3984 
Q 2250 4219 1831 4219 
Q 1534 4219 1204 4116 
Q 875 4013 500 3803 
L 500 4441 
Q 881 4594 1212 4672 
Q 1544 4750 1819 4750 
Q 2544 4750 2975 4387 
Q 3406 4025 3406 3419 
Q 3406 3131 3298 2873 
Q 3191 2616 2906 2266 
Q 2828 2175 2409 1742 
Q 1991 1309 1228 531 
z
" transform="scale(0.015625)"/>
       </defs>
       <use xlink:href="#DejaVuSans-15"/>
       <use xlink:href="#DejaVuSans-13" transform="translate(63.625 0)"/>
       <use xlink:href="#DejaVuSans-13" transform="translate(127.25 0)"/>
       <use xlink:href="#DejaVuSans-13" transform="translate(190.875 0)"/>
      </g>
     </g>
    </g>
    <g id="xtick_3">
     <g id="line2d_5">
      <path d="M 277.366066 353.877656 
L 277.366066 26.16 
" clip-path="url(#pa7c5263e30)" style="fill: none; stroke: #b0b0b0; stroke-opacity: 0.18; stroke-width: 0.8; stroke-linecap: square"/>
     </g>
     <g id="line2d_6">
      <g>
       <use xlink:href="#mfb49eff293" x="277.366066" y="353.877656" style="stroke: #000000; stroke-width: 0.8"/>
      </g>
     </g>
     <g id="text_3">
      <!-- 2250 -->
      <g transform="translate(264.641066 368.475312) scale(0.1 -0.1)">
       <use xlink:href="#DejaVuSans-15"/>
       <use xlink:href="#DejaVuSans-15" transform="translate(63.625 0)"/>
       <use xlink:href="#DejaVuSans-18" transform="translate(127.25 0)"/>
       <use xlink:href="#DejaVuSans-13" transform="translate(190.875 0)"/>
      </g>
     </g>
    </g>
    <g id="xtick_4">
     <g id="line2d_7">
      <path d="M 362.530476 353.877656 
L 362.530476 26.16 
" clip-path="url(#pa7c5263e30)" style="fill: none; stroke: #b0b0b0; stroke-opacity: 0.18; stroke-width: 0.8; stroke-linecap: square"/>
     </g>
     <g id="line2d_8">
      <g>
       <use xlink:href="#mfb49eff293" x="362.530476" y="353.877656" style="stroke: #000000; stroke-width: 0.8"/>
      </g>
     </g>
     <g id="text_4">
      <!-- 2500 -->
      <g transform="translate(349.805476 368.475312) scale(0.1 -0.1)">
       <use xlink:href="#DejaVuSans-15"/>
       <use xlink:href="#DejaVuSans-18" transform="translate(63.625 0)"/>
       <use xlink:href="#DejaVuSans-13" transform="translate(127.25 0)"/>
       <use xlink:href="#DejaVuSans-13" transform="translate(190.875 0)"/>
      </g>
     </g>
    </g>
    <g id="xtick_5">
     <g id="line2d_9">
      <path d="M 447.694886 353.877656 
L 447.694886 26.16 
" clip-path="url(#pa7c5263e30)" style="fill: none; stroke: #b0b0b0; stroke-opacity: 0.18; stroke-width: 0.8; stroke-linecap: square"/>
     </g>
     <g id="line2d_10">
      <g>
       <use xlink:href="#mfb49eff293" x="447.694886" y="353.877656" style="stroke: #000000; stroke-width: 0.8"/>
      </g>
     </g>
     <g id="text_5">
      <!-- 2750 -->
      <g transform="translate(434.969886 368.475312) scale(0.1 -0.1)">
       <use xlink:href="#DejaVuSans-15"/>
       <use xlink:href="#DejaVuSans-1a" transform="translate(63.625 0)"/>
       <use xlink:href="#DejaVuSans-18" transform="translate(127.25 0)"/>
       <use xlink:href="#DejaVuSans-13" transform="translate(190.875 0)"/>
      </g>
     </g>
    </g>
    <g id="xtick_6">
     <g id="line2d_11">
      <path d="M 532.859295 353.877656 
L 532.859295 26.16 
" clip-path="url(#pa7c5263e30)" style="fill: none; stroke: #b0b0b0; stroke-opacity: 0.18; stroke-width: 0.8; stroke-linecap: square"/>
     </g>
     <g id="line2d_12">
      <g>
       <use xlink:href="#mfb49eff293" x="532.859295" y="353.877656" style="stroke: #000000; stroke-width: 0.8"/>
      </g>
     </g>
     <g id="text_6">
      <!-- 3000 -->
      <g transform="translate(520.134295 368.475312) scale(0.1 -0.1)">
       <defs>
        <path id="DejaVuSans-16" d="M 2597 2516 
Q 3050 2419 3304 2112 
Q 3559 1806 3559 1356 
Q 3559 666 3084 287 
Q 2609 -91 1734 -91 
Q 1441 -91 1130 -33 
Q 819 25 488 141 
L 488 750 
Q 750 597 1062 519 
Q 1375 441 1716 441 
Q 2309 441 2620 675 
Q 2931 909 2931 1356 
Q 2931 1769 2642 2001 
Q 2353 2234 1838 2234 
L 1294 2234 
L 1294 2753 
L 1863 2753 
Q 2328 2753 2575 2939 
Q 2822 3125 2822 3475 
Q 2822 3834 2567 4026 
Q 2313 4219 1838 4219 
Q 1578 4219 1281 4162 
Q 984 4106 628 3988 
L 628 4550 
Q 988 4650 1302 4700 
Q 1616 4750 1894 4750 
Q 2613 4750 3031 4423 
Q 3450 4097 3450 3541 
Q 3450 3153 3228 2886 
Q 3006 2619 2597 2516 
z
" transform="scale(0.015625)"/>
       </defs>
       <use xlink:href="#DejaVuSans-16"/>
       <use xlink:href="#DejaVuSans-13" transform="translate(63.625 0)"/>
       <use xlink:href="#DejaVuSans-13" transform="translate(127.25 0)"/>
       <use xlink:href="#DejaVuSans-13" transform="translate(190.875 0)"/>
      </g>
     </g>
    </g>
    <g id="xtick_7">
     <g id="line2d_13">
      <path d="M 618.023705 353.877656 
L 618.023705 26.16 
" clip-path="url(#pa7c5263e30)" style="fill: none; stroke: #b0b0b0; stroke-opacity: 0.18; stroke-width: 0.8; stroke-linecap: square"/>
     </g>
     <g id="line2d_14">
      <g>
       <use xlink:href="#mfb49eff293" x="618.023705" y="353.877656" style="stroke: #000000; stroke-width: 0.8"/>
      </g>
     </g>
     <g id="text_7">
      <!-- 3250 -->
      <g transform="translate(605.298705 368.475312) scale(0.1 -0.1)">
       <use xlink:href="#DejaVuSans-16"/>
       <use xlink:href="#DejaVuSans-15" transform="translate(63.625 0)"/>
       <use xlink:href="#DejaVuSans-18" transform="translate(127.25 0)"/>
       <use xlink:href="#DejaVuSans-13" transform="translate(190.875 0)"/>
      </g>
     </g>
    </g>
    <g id="xtick_8">
     <g id="line2d_15">
      <path d="M 703.188115 353.877656 
L 703.188115 26.16 
" clip-path="url(#pa7c5263e30)" style="fill: none; stroke: #b0b0b0; stroke-opacity: 0.18; stroke-width: 0.8; stroke-linecap: square"/>
     </g>
     <g id="line2d_16">
      <g>
       <use xlink:href="#mfb49eff293" x="703.188115" y="353.877656" style="stroke: #000000; stroke-width: 0.8"/>
      </g>
     </g>
     <g id="text_8">
      <!-- 3500 -->
      <g transform="translate(690.463115 368.475312) scale(0.1 -0.1)">
       <use xlink:href="#DejaVuSans-16"/>
       <use xlink:href="#DejaVuSans-18" transform="translate(63.625 0)"/>
       <use xlink:href="#DejaVuSans-13" transform="translate(127.25 0)"/>
       <use xlink:href="#DejaVuSans-13" transform="translate(190.875 0)"/>
      </g>
     </g>
    </g>
    <g id="text_9">
     <!-- Measured midpoint (BJD TDB − 2457000) -->
     <g transform="translate(295.456484 382.476094) scale(0.1 -0.1)">
      <defs>
       <path id="DejaVuSans-30" d="M 628 4666 
L 1569 4666 
L 2759 1491 
L 3956 4666 
L 4897 4666 
L 4897 0 
L 4281 0 
L 4281 4097 
L 3078 897 
L 2444 897 
L 1241 4097 
L 1241 0 
L 628 0 
L 628 4666 
z
" transform="scale(0.015625)"/>
       <path id="DejaVuSans-48" d="M 3597 1894 
L 3597 1613 
L 953 1613 
Q 991 1019 1311 708 
Q 1631 397 2203 397 
Q 2534 397 2845 478 
Q 3156 559 3463 722 
L 3463 178 
Q 3153 47 2828 -22 
Q 2503 -91 2169 -91 
Q 1331 -91 842 396 
Q 353 884 353 1716 
Q 353 2575 817 3079 
Q 1281 3584 2069 3584 
Q 2775 3584 3186 3129 
Q 3597 2675 3597 1894 
z
M 3022 2063 
Q 3016 2534 2758 2815 
Q 2500 3097 2075 3097 
Q 1594 3097 1305 2825 
Q 1016 2553 972 2059 
L 3022 2063 
z
" transform="scale(0.015625)"/>
       <path id="DejaVuSans-44" d="M 2194 1759 
Q 1497 1759 1228 1600 
Q 959 1441 959 1056 
Q 959 750 1161 570 
Q 1363 391 1709 391 
Q 2188 391 2477 730 
Q 2766 1069 2766 1631 
L 2766 1759 
L 2194 1759 
z
M 3341 1997 
L 3341 0 
L 2766 0 
L 2766 531 
Q 2569 213 2275 61 
Q 1981 -91 1556 -91 
Q 1019 -91 701 211 
Q 384 513 384 1019 
Q 384 1609 779 1909 
Q 1175 2209 1959 2209 
L 2766 2209 
L 2766 2266 
Q 2766 2663 2505 2880 
Q 2244 3097 1772 3097 
Q 1472 3097 1187 3025 
Q 903 2953 641 2809 
L 641 3341 
Q 956 3463 1253 3523 
Q 1550 3584 1831 3584 
Q 2591 3584 2966 3190 
Q 3341 2797 3341 1997 
z
" transform="scale(0.015625)"/>
       <path id="DejaVuSans-56" d="M 2834 3397 
L 2834 2853 
Q 2591 2978 2328 3040 
Q 2066 3103 1784 3103 
Q 1356 3103 1142 2972 
Q 928 2841 928 2578 
Q 928 2378 1081 2264 
Q 1234 2150 1697 2047 
L 1894 2003 
Q 2506 1872 2764 1633 
Q 3022 1394 3022 966 
Q 3022 478 2636 193 
Q 2250 -91 1575 -91 
Q 1294 -91 989 -36 
Q 684 19 347 128 
L 347 722 
Q 666 556 975 473 
Q 1284 391 1588 391 
Q 1994 391 2212 530 
Q 2431 669 2431 922 
Q 2431 1156 2273 1281 
Q 2116 1406 1581 1522 
L 1381 1569 
Q 847 1681 609 1914 
Q 372 2147 372 2553 
Q 372 3047 722 3315 
Q 1072 3584 1716 3584 
Q 2034 3584 2315 3537 
Q 2597 3491 2834 3397 
z
" transform="scale(0.015625)"/>
       <path id="DejaVuSans-58" d="M 544 1381 
L 544 3500 
L 1119 3500 
L 1119 1403 
Q 1119 906 1312 657 
Q 1506 409 1894 409 
Q 2359 409 2629 706 
Q 2900 1003 2900 1516 
L 2900 3500 
L 3475 3500 
L 3475 0 
L 2900 0 
L 2900 538 
Q 2691 219 2414 64 
Q 2138 -91 1772 -91 
Q 1169 -91 856 284 
Q 544 659 544 1381 
z
M 1991 3584 
L 1991 3584 
z
" transform="scale(0.015625)"/>
       <path id="DejaVuSans-55" d="M 2631 2963 
Q 2534 3019 2420 3045 
Q 2306 3072 2169 3072 
Q 1681 3072 1420 2755 
Q 1159 2438 1159 1844 
L 1159 0 
L 581 0 
L 581 3500 
L 1159 3500 
L 1159 2956 
Q 1341 3275 1631 3429 
Q 1922 3584 2338 3584 
Q 2397 3584 2469 3576 
Q 2541 3569 2628 3553 
L 2631 2963 
z
" transform="scale(0.015625)"/>
       <path id="DejaVuSans-47" d="M 2906 2969 
L 2906 4863 
L 3481 4863 
L 3481 0 
L 2906 0 
L 2906 525 
Q 2725 213 2448 61 
Q 2172 -91 1784 -91 
Q 1150 -91 751 415 
Q 353 922 353 1747 
Q 353 2572 751 3078 
Q 1150 3584 1784 3584 
Q 2172 3584 2448 3432 
Q 2725 3281 2906 2969 
z
M 947 1747 
Q 947 1113 1208 752 
Q 1469 391 1925 391 
Q 2381 391 2643 752 
Q 2906 1113 2906 1747 
Q 2906 2381 2643 2742 
Q 2381 3103 1925 3103 
Q 1469 3103 1208 2742 
Q 947 2381 947 1747 
z
" transform="scale(0.015625)"/>
       <path id="DejaVuSans-3" transform="scale(0.015625)"/>
       <path id="DejaVuSans-50" d="M 3328 2828 
Q 3544 3216 3844 3400 
Q 4144 3584 4550 3584 
Q 5097 3584 5394 3201 
Q 5691 2819 5691 2113 
L 5691 0 
L 5113 0 
L 5113 2094 
Q 5113 2597 4934 2840 
Q 4756 3084 4391 3084 
Q 3944 3084 3684 2787 
Q 3425 2491 3425 1978 
L 3425 0 
L 2847 0 
L 2847 2094 
Q 2847 2600 2669 2842 
Q 2491 3084 2119 3084 
Q 1678 3084 1418 2786 
Q 1159 2488 1159 1978 
L 1159 0 
L 581 0 
L 581 3500 
L 1159 3500 
L 1159 2956 
Q 1356 3278 1631 3431 
Q 1906 3584 2284 3584 
Q 2666 3584 2933 3390 
Q 3200 3197 3328 2828 
z
" transform="scale(0.015625)"/>
       <path id="DejaVuSans-4c" d="M 603 3500 
L 1178 3500 
L 1178 0 
L 603 0 
L 603 3500 
z
M 603 4863 
L 1178 4863 
L 1178 4134 
L 603 4134 
L 603 4863 
z
" transform="scale(0.015625)"/>
       <path id="DejaVuSans-53" d="M 1159 525 
L 1159 -1331 
L 581 -1331 
L 581 3500 
L 1159 3500 
L 1159 2969 
Q 1341 3281 1617 3432 
Q 1894 3584 2278 3584 
Q 2916 3584 3314 3078 
Q 3713 2572 3713 1747 
Q 3713 922 3314 415 
Q 2916 -91 2278 -91 
Q 1894 -91 1617 61 
Q 1341 213 1159 525 
z
M 3116 1747 
Q 3116 2381 2855 2742 
Q 2594 3103 2138 3103 
Q 1681 3103 1420 2742 
Q 1159 2381 1159 1747 
Q 1159 1113 1420 752 
Q 1681 391 2138 391 
Q 2594 391 2855 752 
Q 3116 1113 3116 1747 
z
" transform="scale(0.015625)"/>
       <path id="DejaVuSans-52" d="M 1959 3097 
Q 1497 3097 1228 2736 
Q 959 2375 959 1747 
Q 959 1119 1226 758 
Q 1494 397 1959 397 
Q 2419 397 2687 759 
Q 2956 1122 2956 1747 
Q 2956 2369 2687 2733 
Q 2419 3097 1959 3097 
z
M 1959 3584 
Q 2709 3584 3137 3096 
Q 3566 2609 3566 1747 
Q 3566 888 3137 398 
Q 2709 -91 1959 -91 
Q 1206 -91 779 398 
Q 353 888 353 1747 
Q 353 2609 779 3096 
Q 1206 3584 1959 3584 
z
" transform="scale(0.015625)"/>
       <path id="DejaVuSans-51" d="M 3513 2113 
L 3513 0 
L 2938 0 
L 2938 2094 
Q 2938 2591 2744 2837 
Q 2550 3084 2163 3084 
Q 1697 3084 1428 2787 
Q 1159 2491 1159 1978 
L 1159 0 
L 581 0 
L 581 3500 
L 1159 3500 
L 1159 2956 
Q 1366 3272 1645 3428 
Q 1925 3584 2291 3584 
Q 2894 3584 3203 3211 
Q 3513 2838 3513 2113 
z
" transform="scale(0.015625)"/>
       <path id="DejaVuSans-57" d="M 1172 4494 
L 1172 3500 
L 2356 3500 
L 2356 3053 
L 1172 3053 
L 1172 1153 
Q 1172 725 1289 603 
Q 1406 481 1766 481 
L 2356 481 
L 2356 0 
L 1766 0 
Q 1100 0 847 248 
Q 594 497 594 1153 
L 594 3053 
L 172 3053 
L 172 3500 
L 594 3500 
L 594 4494 
L 1172 4494 
z
" transform="scale(0.015625)"/>
       <path id="DejaVuSans-b" d="M 1984 4856 
Q 1566 4138 1362 3434 
Q 1159 2731 1159 2009 
Q 1159 1288 1364 580 
Q 1569 -128 1984 -844 
L 1484 -844 
Q 1016 -109 783 600 
Q 550 1309 550 2009 
Q 550 2706 781 3412 
Q 1013 4119 1484 4856 
L 1984 4856 
z
" transform="scale(0.015625)"/>
       <path id="DejaVuSans-25" d="M 1259 2228 
L 1259 519 
L 2272 519 
Q 2781 519 3026 730 
Q 3272 941 3272 1375 
Q 3272 1813 3026 2020 
Q 2781 2228 2272 2228 
L 1259 2228 
z
M 1259 4147 
L 1259 2741 
L 2194 2741 
Q 2656 2741 2882 2914 
Q 3109 3088 3109 3444 
Q 3109 3797 2882 3972 
Q 2656 4147 2194 4147 
L 1259 4147 
z
M 628 4666 
L 2241 4666 
Q 2963 4666 3353 4366 
Q 3744 4066 3744 3513 
Q 3744 3084 3544 2831 
Q 3344 2578 2956 2516 
Q 3422 2416 3680 2098 
Q 3938 1781 3938 1306 
Q 3938 681 3513 340 
Q 3088 0 2303 0 
L 628 0 
L 628 4666 
z
" transform="scale(0.015625)"/>
       <path id="DejaVuSans-2d" d="M 628 4666 
L 1259 4666 
L 1259 325 
Q 1259 -519 939 -900 
Q 619 -1281 -91 -1281 
L -331 -1281 
L -331 -750 
L -134 -750 
Q 284 -750 456 -515 
Q 628 -281 628 325 
L 628 4666 
z
" transform="scale(0.015625)"/>
       <path id="DejaVuSans-27" d="M 1259 4147 
L 1259 519 
L 2022 519 
Q 2988 519 3436 956 
Q 3884 1394 3884 2338 
Q 3884 3275 3436 3711 
Q 2988 4147 2022 4147 
L 1259 4147 
z
M 628 4666 
L 1925 4666 
Q 3281 4666 3915 4102 
Q 4550 3538 4550 2338 
Q 4550 1131 3912 565 
Q 3275 0 1925 0 
L 628 0 
L 628 4666 
z
" transform="scale(0.015625)"/>
       <path id="DejaVuSans-37" d="M -19 4666 
L 3928 4666 
L 3928 4134 
L 2272 4134 
L 2272 0 
L 1638 0 
L 1638 4134 
L -19 4134 
L -19 4666 
z
" transform="scale(0.015625)"/>
       <path id="DejaVuSans-c9c" d="M 678 2272 
L 4684 2272 
L 4684 1741 
L 678 1741 
L 678 2272 
z
" transform="scale(0.015625)"/>
       <path id="DejaVuSans-17" d="M 2419 4116 
L 825 1625 
L 2419 1625 
L 2419 4116 
z
M 2253 4666 
L 3047 4666 
L 3047 1625 
L 3713 1625 
L 3713 1100 
L 3047 1100 
L 3047 0 
L 2419 0 
L 2419 1100 
L 313 1100 
L 313 1709 
L 2253 4666 
z
" transform="scale(0.015625)"/>
       <path id="DejaVuSans-c" d="M 513 4856 
L 1013 4856 
Q 1481 4119 1714 3412 
Q 1947 2706 1947 2009 
Q 1947 1309 1714 600 
Q 1481 -109 1013 -844 
L 513 -844 
Q 928 -128 1133 580 
Q 1338 1288 1338 2009 
Q 1338 2731 1133 3434 
Q 928 4138 513 4856 
z
" transform="scale(0.015625)"/>
      </defs>
      <use xlink:href="#DejaVuSans-30"/>
      <use xlink:href="#DejaVuSans-48" transform="translate(86.28125 0)"/>
      <use xlink:href="#DejaVuSans-44" transform="translate(147.8125 0)"/>
      <use xlink:href="#DejaVuSans-56" transform="translate(209.09375 0)"/>
      <use xlink:href="#DejaVuSans-58" transform="translate(261.1875 0)"/>
      <use xlink:href="#DejaVuSans-55" transform="translate(324.5625 0)"/>
      <use xlink:href="#DejaVuSans-48" transform="translate(363.46875 0)"/>
      <use xlink:href="#DejaVuSans-47" transform="translate(425 0)"/>
      <use xlink:href="#DejaVuSans-3" transform="translate(488.484375 0)"/>
      <use xlink:href="#DejaVuSans-50" transform="translate(520.265625 0)"/>
      <use xlink:href="#DejaVuSans-4c" transform="translate(617.671875 0)"/>
      <use xlink:href="#DejaVuSans-47" transform="translate(645.453125 0)"/>
      <use xlink:href="#DejaVuSans-53" transform="translate(708.9375 0)"/>
      <use xlink:href="#DejaVuSans-52" transform="translate(772.421875 0)"/>
      <use xlink:href="#DejaVuSans-4c" transform="translate(833.609375 0)"/>
      <use xlink:href="#DejaVuSans-51" transform="translate(861.390625 0)"/>
      <use xlink:href="#DejaVuSans-57" transform="translate(924.765625 0)"/>
      <use xlink:href="#DejaVuSans-3" transform="translate(963.96875 0)"/>
      <use xlink:href="#DejaVuSans-b" transform="translate(995.75 0)"/>
      <use xlink:href="#DejaVuSans-25" transform="translate(1034.765625 0)"/>
      <use xlink:href="#DejaVuSans-2d" transform="translate(1103.375 0)"/>
      <use xlink:href="#DejaVuSans-27" transform="translate(1132.875 0)"/>
      <use xlink:href="#DejaVuSans-3" transform="translate(1209.875 0)"/>
      <use xlink:href="#DejaVuSans-37" transform="translate(1241.65625 0)"/>
      <use xlink:href="#DejaVuSans-27" transform="translate(1302.734375 0)"/>
      <use xlink:href="#DejaVuSans-25" transform="translate(1379.734375 0)"/>
      <use xlink:href="#DejaVuSans-3" transform="translate(1448.34375 0)"/>
      <use xlink:href="#DejaVuSans-c9c" transform="translate(1480.125 0)"/>
      <use xlink:href="#DejaVuSans-3" transform="translate(1563.921875 0)"/>
      <use xlink:href="#DejaVuSans-15" transform="translate(1595.703125 0)"/>
      <use xlink:href="#DejaVuSans-17" transform="translate(1659.328125 0)"/>
      <use xlink:href="#DejaVuSans-18" transform="translate(1722.953125 0)"/>
      <use xlink:href="#DejaVuSans-1a" transform="translate(1786.578125 0)"/>
      <use xlink:href="#DejaVuSans-13" transform="translate(1850.203125 0)"/>
      <use xlink:href="#DejaVuSans-13" transform="translate(1913.828125 0)"/>
      <use xlink:href="#DejaVuSans-13" transform="translate(1977.453125 0)"/>
      <use xlink:href="#DejaVuSans-c" transform="translate(2041.078125 0)"/>
     </g>
    </g>
   </g>
   <g id="matplotlib.axis_2">
    <g id="ytick_1">
     <g id="line2d_17">
      <path d="M 53.722344 328.636777 
L 745.2 328.636777 
" clip-path="url(#pa7c5263e30)" style="fill: none; stroke: #b0b0b0; stroke-opacity: 0.18; stroke-width: 0.8; stroke-linecap: square"/>
     </g>
     <g id="line2d_18">
      <defs>
       <path id="meeb1ee47ac" d="M 0 0 
L -3.5 0 
" style="stroke: #000000; stroke-width: 0.8"/>
      </defs>
      <g>
       <use xlink:href="#meeb1ee47ac" x="53.722344" y="328.636777" style="stroke: #000000; stroke-width: 0.8"/>
      </g>
     </g>
     <g id="text_10">
      <!-- −30 -->
      <g transform="translate(25.617656 332.435605) scale(0.1 -0.1)">
       <use xlink:href="#DejaVuSans-c9c"/>
       <use xlink:href="#DejaVuSans-16" transform="translate(83.796875 0)"/>
       <use xlink:href="#DejaVuSans-13" transform="translate(147.421875 0)"/>
      </g>
     </g>
    </g>
    <g id="ytick_2">
     <g id="line2d_19">
      <path d="M 53.722344 285.534181 
L 745.2 285.534181 
" clip-path="url(#pa7c5263e30)" style="fill: none; stroke: #b0b0b0; stroke-opacity: 0.18; stroke-width: 0.8; stroke-linecap: square"/>
     </g>
     <g id="line2d_20">
      <g>
       <use xlink:href="#meeb1ee47ac" x="53.722344" y="285.534181" style="stroke: #000000; stroke-width: 0.8"/>
      </g>
     </g>
     <g id="text_11">
      <!-- −20 -->
      <g transform="translate(25.617656 289.33301) scale(0.1 -0.1)">
       <use xlink:href="#DejaVuSans-c9c"/>
       <use xlink:href="#DejaVuSans-15" transform="translate(83.796875 0)"/>
       <use xlink:href="#DejaVuSans-13" transform="translate(147.421875 0)"/>
      </g>
     </g>
    </g>
    <g id="ytick_3">
     <g id="line2d_21">
      <path d="M 53.722344 242.431586 
L 745.2 242.431586 
" clip-path="url(#pa7c5263e30)" style="fill: none; stroke: #b0b0b0; stroke-opacity: 0.18; stroke-width: 0.8; stroke-linecap: square"/>
     </g>
     <g id="line2d_22">
      <g>
       <use xlink:href="#meeb1ee47ac" x="53.722344" y="242.431586" style="stroke: #000000; stroke-width: 0.8"/>
      </g>
     </g>
     <g id="text_12">
      <!-- −10 -->
      <g transform="translate(25.617656 246.230414) scale(0.1 -0.1)">
       <use xlink:href="#DejaVuSans-c9c"/>
       <use xlink:href="#DejaVuSans-14" transform="translate(83.796875 0)"/>
       <use xlink:href="#DejaVuSans-13" transform="translate(147.421875 0)"/>
      </g>
     </g>
    </g>
    <g id="ytick_4">
     <g id="line2d_23">
      <path d="M 53.722344 199.32899 
L 745.2 199.32899 
" clip-path="url(#pa7c5263e30)" style="fill: none; stroke: #b0b0b0; stroke-opacity: 0.18; stroke-width: 0.8; stroke-linecap: square"/>
     </g>
     <g id="line2d_24">
      <g>
       <use xlink:href="#meeb1ee47ac" x="53.722344" y="199.32899" style="stroke: #000000; stroke-width: 0.8"/>
      </g>
     </g>
     <g id="text_13">
      <!-- 0 -->
      <g transform="translate(40.359844 203.127818) scale(0.1 -0.1)">
       <use xlink:href="#DejaVuSans-13"/>
      </g>
     </g>
    </g>
    <g id="ytick_5">
     <g id="line2d_25">
      <path d="M 53.722344 156.226394 
L 745.2 156.226394 
" clip-path="url(#pa7c5263e30)" style="fill: none; stroke: #b0b0b0; stroke-opacity: 0.18; stroke-width: 0.8; stroke-linecap: square"/>
     </g>
     <g id="line2d_26">
      <g>
       <use xlink:href="#meeb1ee47ac" x="53.722344" y="156.226394" style="stroke: #000000; stroke-width: 0.8"/>
      </g>
     </g>
     <g id="text_14">
      <!-- 10 -->
      <g transform="translate(33.997344 160.025222) scale(0.1 -0.1)">
       <use xlink:href="#DejaVuSans-14"/>
       <use xlink:href="#DejaVuSans-13" transform="translate(63.625 0)"/>
      </g>
     </g>
    </g>
    <g id="ytick_6">
     <g id="line2d_27">
      <path d="M 53.722344 113.123798 
L 745.2 113.123798 
" clip-path="url(#pa7c5263e30)" style="fill: none; stroke: #b0b0b0; stroke-opacity: 0.18; stroke-width: 0.8; stroke-linecap: square"/>
     </g>
     <g id="line2d_28">
      <g>
       <use xlink:href="#meeb1ee47ac" x="53.722344" y="113.123798" style="stroke: #000000; stroke-width: 0.8"/>
      </g>
     </g>
     <g id="text_15">
      <!-- 20 -->
      <g transform="translate(33.997344 116.922627) scale(0.1 -0.1)">
       <use xlink:href="#DejaVuSans-15"/>
       <use xlink:href="#DejaVuSans-13" transform="translate(63.625 0)"/>
      </g>
     </g>
    </g>
    <g id="ytick_7">
     <g id="line2d_29">
      <path d="M 53.722344 70.021203 
L 745.2 70.021203 
" clip-path="url(#pa7c5263e30)" style="fill: none; stroke: #b0b0b0; stroke-opacity: 0.18; stroke-width: 0.8; stroke-linecap: square"/>
     </g>
     <g id="line2d_30">
      <g>
       <use xlink:href="#meeb1ee47ac" x="53.722344" y="70.021203" style="stroke: #000000; stroke-width: 0.8"/>
      </g>
     </g>
     <g id="text_16">
      <!-- 30 -->
      <g transform="translate(33.997344 73.820031) scale(0.1 -0.1)">
       <use xlink:href="#DejaVuSans-16"/>
       <use xlink:href="#DejaVuSans-13" transform="translate(63.625 0)"/>
      </g>
     </g>
    </g>
    <g id="ytick_8">
     <g id="line2d_31">
      <path d="M 53.722344 26.918607 
L 745.2 26.918607 
" clip-path="url(#pa7c5263e30)" style="fill: none; stroke: #b0b0b0; stroke-opacity: 0.18; stroke-width: 0.8; stroke-linecap: square"/>
     </g>
     <g id="line2d_32">
      <g>
       <use xlink:href="#meeb1ee47ac" x="53.722344" y="26.918607" style="stroke: #000000; stroke-width: 0.8"/>
      </g>
     </g>
     <g id="text_17">
      <!-- 40 -->
      <g transform="translate(33.997344 30.717435) scale(0.1 -0.1)">
       <use xlink:href="#DejaVuSans-17"/>
       <use xlink:href="#DejaVuSans-13" transform="translate(63.625 0)"/>
      </g>
     </g>
    </g>
    <g id="text_18">
     <!-- Observed minus catalog prediction (minutes) -->
     <g transform="translate(19.215313 303.319609) rotate(-90) scale(0.1 -0.1)">
      <defs>
       <path id="DejaVuSans-32" d="M 2522 4238 
Q 1834 4238 1429 3725 
Q 1025 3213 1025 2328 
Q 1025 1447 1429 934 
Q 1834 422 2522 422 
Q 3209 422 3611 934 
Q 4013 1447 4013 2328 
Q 4013 3213 3611 3725 
Q 3209 4238 2522 4238 
z
M 2522 4750 
Q 3503 4750 4090 4092 
Q 4678 3434 4678 2328 
Q 4678 1225 4090 567 
Q 3503 -91 2522 -91 
Q 1538 -91 948 565 
Q 359 1222 359 2328 
Q 359 3434 948 4092 
Q 1538 4750 2522 4750 
z
" transform="scale(0.015625)"/>
       <path id="DejaVuSans-45" d="M 3116 1747 
Q 3116 2381 2855 2742 
Q 2594 3103 2138 3103 
Q 1681 3103 1420 2742 
Q 1159 2381 1159 1747 
Q 1159 1113 1420 752 
Q 1681 391 2138 391 
Q 2594 391 2855 752 
Q 3116 1113 3116 1747 
z
M 1159 2969 
Q 1341 3281 1617 3432 
Q 1894 3584 2278 3584 
Q 2916 3584 3314 3078 
Q 3713 2572 3713 1747 
Q 3713 922 3314 415 
Q 2916 -91 2278 -91 
Q 1894 -91 1617 61 
Q 1341 213 1159 525 
L 1159 0 
L 581 0 
L 581 4863 
L 1159 4863 
L 1159 2969 
z
" transform="scale(0.015625)"/>
       <path id="DejaVuSans-59" d="M 191 3500 
L 800 3500 
L 1894 563 
L 2988 3500 
L 3597 3500 
L 2284 0 
L 1503 0 
L 191 3500 
z
" transform="scale(0.015625)"/>
       <path id="DejaVuSans-46" d="M 3122 3366 
L 3122 2828 
Q 2878 2963 2633 3030 
Q 2388 3097 2138 3097 
Q 1578 3097 1268 2742 
Q 959 2388 959 1747 
Q 959 1106 1268 751 
Q 1578 397 2138 397 
Q 2388 397 2633 464 
Q 2878 531 3122 666 
L 3122 134 
Q 2881 22 2623 -34 
Q 2366 -91 2075 -91 
Q 1284 -91 818 406 
Q 353 903 353 1747 
Q 353 2603 823 3093 
Q 1294 3584 2113 3584 
Q 2378 3584 2631 3529 
Q 2884 3475 3122 3366 
z
" transform="scale(0.015625)"/>
       <path id="DejaVuSans-4f" d="M 603 4863 
L 1178 4863 
L 1178 0 
L 603 0 
L 603 4863 
z
" transform="scale(0.015625)"/>
       <path id="DejaVuSans-4a" d="M 2906 1791 
Q 2906 2416 2648 2759 
Q 2391 3103 1925 3103 
Q 1463 3103 1205 2759 
Q 947 2416 947 1791 
Q 947 1169 1205 825 
Q 1463 481 1925 481 
Q 2391 481 2648 825 
Q 2906 1169 2906 1791 
z
M 3481 434 
Q 3481 -459 3084 -895 
Q 2688 -1331 1869 -1331 
Q 1566 -1331 1297 -1286 
Q 1028 -1241 775 -1147 
L 775 -588 
Q 1028 -725 1275 -790 
Q 1522 -856 1778 -856 
Q 2344 -856 2625 -561 
Q 2906 -266 2906 331 
L 2906 616 
Q 2728 306 2450 153 
Q 2172 0 1784 0 
Q 1141 0 747 490 
Q 353 981 353 1791 
Q 353 2603 747 3093 
Q 1141 3584 1784 3584 
Q 2172 3584 2450 3431 
Q 2728 3278 2906 2969 
L 2906 3500 
L 3481 3500 
L 3481 434 
z
" transform="scale(0.015625)"/>
      </defs>
      <use xlink:href="#DejaVuSans-32"/>
      <use xlink:href="#DejaVuSans-45" transform="translate(78.71875 0)"/>
      <use xlink:href="#DejaVuSans-56" transform="translate(142.203125 0)"/>
      <use xlink:href="#DejaVuSans-48" transform="translate(194.296875 0)"/>
      <use xlink:href="#DejaVuSans-55" transform="translate(255.828125 0)"/>
      <use xlink:href="#DejaVuSans-59" transform="translate(296.9375 0)"/>
      <use xlink:href="#DejaVuSans-48" transform="translate(356.125 0)"/>
      <use xlink:href="#DejaVuSans-47" transform="translate(417.65625 0)"/>
      <use xlink:href="#DejaVuSans-3" transform="translate(481.140625 0)"/>
      <use xlink:href="#DejaVuSans-50" transform="translate(512.921875 0)"/>
      <use xlink:href="#DejaVuSans-4c" transform="translate(610.328125 0)"/>
      <use xlink:href="#DejaVuSans-51" transform="translate(638.109375 0)"/>
      <use xlink:href="#DejaVuSans-58" transform="translate(701.484375 0)"/>
      <use xlink:href="#DejaVuSans-56" transform="translate(764.859375 0)"/>
      <use xlink:href="#DejaVuSans-3" transform="translate(816.953125 0)"/>
      <use xlink:href="#DejaVuSans-46" transform="translate(848.734375 0)"/>
      <use xlink:href="#DejaVuSans-44" transform="translate(903.71875 0)"/>
      <use xlink:href="#DejaVuSans-57" transform="translate(965 0)"/>
      <use xlink:href="#DejaVuSans-44" transform="translate(1004.203125 0)"/>
      <use xlink:href="#DejaVuSans-4f" transform="translate(1065.484375 0)"/>
      <use xlink:href="#DejaVuSans-52" transform="translate(1093.265625 0)"/>
      <use xlink:href="#DejaVuSans-4a" transform="translate(1154.453125 0)"/>
      <use xlink:href="#DejaVuSans-3" transform="translate(1217.9375 0)"/>
      <use xlink:href="#DejaVuSans-53" transform="translate(1249.71875 0)"/>
      <use xlink:href="#DejaVuSans-55" transform="translate(1313.203125 0)"/>
      <use xlink:href="#DejaVuSans-48" transform="translate(1352.109375 0)"/>
      <use xlink:href="#DejaVuSans-47" transform="translate(1413.640625 0)"/>
      <use xlink:href="#DejaVuSans-4c" transform="translate(1477.125 0)"/>
      <use xlink:href="#DejaVuSans-46" transform="translate(1504.90625 0)"/>
      <use xlink:href="#DejaVuSans-57" transform="translate(1559.890625 0)"/>
      <use xlink:href="#DejaVuSans-4c" transform="translate(1599.09375 0)"/>
      <use xlink:href="#DejaVuSans-52" transform="translate(1626.875 0)"/>
      <use xlink:href="#DejaVuSans-51" transform="translate(1688.0625 0)"/>
      <use xlink:href="#DejaVuSans-3" transform="translate(1751.4375 0)"/>
      <use xlink:href="#DejaVuSans-b" transform="translate(1783.21875 0)"/>
      <use xlink:href="#DejaVuSans-50" transform="translate(1822.234375 0)"/>
      <use xlink:href="#DejaVuSans-4c" transform="translate(1919.640625 0)"/>
      <use xlink:href="#DejaVuSans-51" transform="translate(1947.421875 0)"/>
      <use xlink:href="#DejaVuSans-58" transform="translate(2010.796875 0)"/>
      <use xlink:href="#DejaVuSans-57" transform="translate(2074.171875 0)"/>
      <use xlink:href="#DejaVuSans-48" transform="translate(2113.375 0)"/>
      <use xlink:href="#DejaVuSans-56" transform="translate(2174.90625 0)"/>
      <use xlink:href="#DejaVuSans-c" transform="translate(2227 0)"/>
     </g>
    </g>
   </g>
   <g id="LineCollection_1">
    <path d="M 85.153146 338.981399 
L 85.153146 258.29334 
" clip-path="url(#pa7c5263e30)" style="fill: none; stroke: #355f8a; stroke-width: 1.5"/>
    <path d="M 86.14809 292.430596 
L 86.14809 236.569632 
" clip-path="url(#pa7c5263e30)" style="fill: none; stroke: #355f8a; stroke-width: 1.5"/>
    <path d="M 90.125139 211.742537 
L 90.125139 143.468025 
" clip-path="url(#pa7c5263e30)" style="fill: none; stroke: #355f8a; stroke-width: 1.5"/>
    <path d="M 93.110141 103.123996 
L 93.110141 41.056258 
" clip-path="url(#pa7c5263e30)" style="fill: none; stroke: #355f8a; stroke-width: 1.5"/>
   </g>
   <g id="line2d_33">
    <defs>
     <path id="m13fbdb72ea" d="M 2 0 
L -2 -0 
" style="stroke: #355f8a"/>
    </defs>
    <g clip-path="url(#pa7c5263e30)">
     <use xlink:href="#m13fbdb72ea" x="85.153146" y="338.981399" style="fill: #355f8a; stroke: #355f8a"/>
     <use xlink:href="#m13fbdb72ea" x="86.14809" y="292.430596" style="fill: #355f8a; stroke: #355f8a"/>
     <use xlink:href="#m13fbdb72ea" x="90.125139" y="211.742537" style="fill: #355f8a; stroke: #355f8a"/>
     <use xlink:href="#m13fbdb72ea" x="93.110141" y="103.123996" style="fill: #355f8a; stroke: #355f8a"/>
    </g>
   </g>
   <g id="line2d_34">
    <g clip-path="url(#pa7c5263e30)">
     <use xlink:href="#m13fbdb72ea" x="85.153146" y="258.29334" style="fill: #355f8a; stroke: #355f8a"/>
     <use xlink:href="#m13fbdb72ea" x="86.14809" y="236.569632" style="fill: #355f8a; stroke: #355f8a"/>
     <use xlink:href="#m13fbdb72ea" x="90.125139" y="143.468025" style="fill: #355f8a; stroke: #355f8a"/>
     <use xlink:href="#m13fbdb72ea" x="93.110141" y="41.056258" style="fill: #355f8a; stroke: #355f8a"/>
    </g>
   </g>
   <g id="LineCollection_2">
    <path d="M 335.413435 200.880683 
L 335.413435 154.329879 
" clip-path="url(#pa7c5263e30)" style="fill: none; stroke: #3f7d64; stroke-width: 1.5"/>
    <path d="M 336.40378 239.673018 
L 336.40378 214.845923 
" clip-path="url(#pa7c5263e30)" style="fill: none; stroke: #3f7d64; stroke-width: 1.5"/>
    <path d="M 338.390091 245.879795 
L 338.390091 202.432378 
" clip-path="url(#pa7c5263e30)" style="fill: none; stroke: #3f7d64; stroke-width: 1.5"/>
    <path d="M 339.383501 233.466246 
L 339.383501 202.432377 
" clip-path="url(#pa7c5263e30)" style="fill: none; stroke: #3f7d64; stroke-width: 1.5"/>
    <path d="M 340.381851 202.432376 
L 340.381851 41.056257 
" clip-path="url(#pa7c5263e30)" style="fill: none; stroke: #3f7d64; stroke-width: 1.5"/>
    <path d="M 341.372707 174.501894 
L 341.372707 149.674799 
" clip-path="url(#pa7c5263e30)" style="fill: none; stroke: #3f7d64; stroke-width: 1.5"/>
    <path d="M 342.362882 230.362859 
L 342.362882 199.32899 
" clip-path="url(#pa7c5263e30)" style="fill: none; stroke: #3f7d64; stroke-width: 1.5"/>
    <path d="M 343.355952 235.017939 
L 343.355952 194.673909 
" clip-path="url(#pa7c5263e30)" style="fill: none; stroke: #3f7d64; stroke-width: 1.5"/>
   </g>
   <g id="line2d_35">
    <defs>
     <path id="mb700a67ca6" d="M 2 0 
L -2 -0 
" style="stroke: #3f7d64"/>
    </defs>
    <g clip-path="url(#pa7c5263e30)">
     <use xlink:href="#mb700a67ca6" x="335.413435" y="200.880683" style="fill: #3f7d64; stroke: #3f7d64"/>
     <use xlink:href="#mb700a67ca6" x="336.40378" y="239.673018" style="fill: #3f7d64; stroke: #3f7d64"/>
     <use xlink:href="#mb700a67ca6" x="338.390091" y="245.879795" style="fill: #3f7d64; stroke: #3f7d64"/>
     <use xlink:href="#mb700a67ca6" x="339.383501" y="233.466246" style="fill: #3f7d64; stroke: #3f7d64"/>
     <use xlink:href="#mb700a67ca6" x="340.381851" y="202.432376" style="fill: #3f7d64; stroke: #3f7d64"/>
     <use xlink:href="#mb700a67ca6" x="341.372707" y="174.501894" style="fill: #3f7d64; stroke: #3f7d64"/>
     <use xlink:href="#mb700a67ca6" x="342.362882" y="230.362859" style="fill: #3f7d64; stroke: #3f7d64"/>
     <use xlink:href="#mb700a67ca6" x="343.355952" y="235.017939" style="fill: #3f7d64; stroke: #3f7d64"/>
    </g>
   </g>
   <g id="line2d_36">
    <g clip-path="url(#pa7c5263e30)">
     <use xlink:href="#mb700a67ca6" x="335.413435" y="154.329879" style="fill: #3f7d64; stroke: #3f7d64"/>
     <use xlink:href="#mb700a67ca6" x="336.40378" y="214.845923" style="fill: #3f7d64; stroke: #3f7d64"/>
     <use xlink:href="#mb700a67ca6" x="338.390091" y="202.432378" style="fill: #3f7d64; stroke: #3f7d64"/>
     <use xlink:href="#mb700a67ca6" x="339.383501" y="202.432377" style="fill: #3f7d64; stroke: #3f7d64"/>
     <use xlink:href="#mb700a67ca6" x="340.381851" y="41.056257" style="fill: #3f7d64; stroke: #3f7d64"/>
     <use xlink:href="#mb700a67ca6" x="341.372707" y="149.674799" style="fill: #3f7d64; stroke: #3f7d64"/>
     <use xlink:href="#mb700a67ca6" x="342.362882" y="199.32899" style="fill: #3f7d64; stroke: #3f7d64"/>
     <use xlink:href="#mb700a67ca6" x="343.355952" y="194.673909" style="fill: #3f7d64; stroke: #3f7d64"/>
    </g>
   </g>
   <g id="LineCollection_3">
    <path d="M 454.579624 235.017939 
L 454.579624 200.880684 
" clip-path="url(#pa7c5263e30)" style="fill: none; stroke: #b16a2f; stroke-width: 1.5"/>
    <path d="M 455.578996 140.364638 
L 455.578996 65.883352 
" clip-path="url(#pa7c5263e30)" style="fill: none; stroke: #b16a2f; stroke-width: 1.5"/>
    <path d="M 458.550542 270.70689 
L 458.550542 214.845926 
" clip-path="url(#pa7c5263e30)" style="fill: none; stroke: #b16a2f; stroke-width: 1.5"/>
    <path d="M 460.538896 278.465356 
L 460.538896 126.399398 
" clip-path="url(#pa7c5263e30)" style="fill: none; stroke: #b16a2f; stroke-width: 1.5"/>
    <path d="M 461.53418 233.466245 
L 461.53418 90.710448 
" clip-path="url(#pa7c5263e30)" style="fill: none; stroke: #b16a2f; stroke-width: 1.5"/>
    <path d="M 462.526399 203.98407 
L 462.526399 151.226492 
" clip-path="url(#pa7c5263e30)" style="fill: none; stroke: #b16a2f; stroke-width: 1.5"/>
   </g>
   <g id="line2d_37">
    <defs>
     <path id="me0cb085bea" d="M 2 0 
L -2 -0 
" style="stroke: #b16a2f"/>
    </defs>
    <g clip-path="url(#pa7c5263e30)">
     <use xlink:href="#me0cb085bea" x="454.579624" y="235.017939" style="fill: #b16a2f; stroke: #b16a2f"/>
     <use xlink:href="#me0cb085bea" x="455.578996" y="140.364638" style="fill: #b16a2f; stroke: #b16a2f"/>
     <use xlink:href="#me0cb085bea" x="458.550542" y="270.70689" style="fill: #b16a2f; stroke: #b16a2f"/>
     <use xlink:href="#me0cb085bea" x="460.538896" y="278.465356" style="fill: #b16a2f; stroke: #b16a2f"/>
     <use xlink:href="#me0cb085bea" x="461.53418" y="233.466245" style="fill: #b16a2f; stroke: #b16a2f"/>
     <use xlink:href="#me0cb085bea" x="462.526399" y="203.98407" style="fill: #b16a2f; stroke: #b16a2f"/>
    </g>
   </g>
   <g id="line2d_38">
    <g clip-path="url(#pa7c5263e30)">
     <use xlink:href="#me0cb085bea" x="454.579624" y="200.880684" style="fill: #b16a2f; stroke: #b16a2f"/>
     <use xlink:href="#me0cb085bea" x="455.578996" y="65.883352" style="fill: #b16a2f; stroke: #b16a2f"/>
     <use xlink:href="#me0cb085bea" x="458.550542" y="214.845926" style="fill: #b16a2f; stroke: #b16a2f"/>
     <use xlink:href="#me0cb085bea" x="460.538896" y="126.399398" style="fill: #b16a2f; stroke: #b16a2f"/>
     <use xlink:href="#me0cb085bea" x="461.53418" y="90.710448" style="fill: #b16a2f; stroke: #b16a2f"/>
     <use xlink:href="#me0cb085bea" x="462.526399" y="151.226492" style="fill: #b16a2f; stroke: #b16a2f"/>
    </g>
   </g>
   <g id="LineCollection_4">
    <path d="M 705.82617 231.914553 
L 705.82617 210.190845 
" clip-path="url(#pa7c5263e30)" style="fill: none; stroke: #7b5a92; stroke-width: 1.5"/>
    <path d="M 706.822647 169.846814 
L 706.822647 148.123105 
" clip-path="url(#pa7c5263e30)" style="fill: none; stroke: #7b5a92; stroke-width: 1.5"/>
    <path d="M 707.813162 210.190845 
L 707.813162 200.880684 
" clip-path="url(#pa7c5263e30)" style="fill: none; stroke: #7b5a92; stroke-width: 1.5"/>
    <path d="M 710.792713 219.501005 
L 710.792713 179.156975 
" clip-path="url(#pa7c5263e30)" style="fill: none; stroke: #7b5a92; stroke-width: 1.5"/>
    <path d="M 711.782376 292.430595 
L 711.782376 230.362857 
" clip-path="url(#pa7c5263e30)" style="fill: none; stroke: #7b5a92; stroke-width: 1.5"/>
    <path d="M 712.776468 252.086568 
L 712.776468 233.466247 
" clip-path="url(#pa7c5263e30)" style="fill: none; stroke: #7b5a92; stroke-width: 1.5"/>
    <path d="M 713.769197 256.741647 
L 713.769197 241.224712 
" clip-path="url(#pa7c5263e30)" style="fill: none; stroke: #7b5a92; stroke-width: 1.5"/>
   </g>
   <g id="line2d_39">
    <defs>
     <path id="md1b65520bd" d="M 2 0 
L -2 -0 
" style="stroke: #7b5a92"/>
    </defs>
    <g clip-path="url(#pa7c5263e30)">
     <use xlink:href="#md1b65520bd" x="705.82617" y="231.914553" style="fill: #7b5a92; stroke: #7b5a92"/>
     <use xlink:href="#md1b65520bd" x="706.822647" y="169.846814" style="fill: #7b5a92; stroke: #7b5a92"/>
     <use xlink:href="#md1b65520bd" x="707.813162" y="210.190845" style="fill: #7b5a92; stroke: #7b5a92"/>
     <use xlink:href="#md1b65520bd" x="710.792713" y="219.501005" style="fill: #7b5a92; stroke: #7b5a92"/>
     <use xlink:href="#md1b65520bd" x="711.782376" y="292.430595" style="fill: #7b5a92; stroke: #7b5a92"/>
     <use xlink:href="#md1b65520bd" x="712.776468" y="252.086568" style="fill: #7b5a92; stroke: #7b5a92"/>
     <use xlink:href="#md1b65520bd" x="713.769197" y="256.741647" style="fill: #7b5a92; stroke: #7b5a92"/>
    </g>
   </g>
   <g id="line2d_40">
    <g clip-path="url(#pa7c5263e30)">
     <use xlink:href="#md1b65520bd" x="705.82617" y="210.190845" style="fill: #7b5a92; stroke: #7b5a92"/>
     <use xlink:href="#md1b65520bd" x="706.822647" y="148.123105" style="fill: #7b5a92; stroke: #7b5a92"/>
     <use xlink:href="#md1b65520bd" x="707.813162" y="200.880684" style="fill: #7b5a92; stroke: #7b5a92"/>
     <use xlink:href="#md1b65520bd" x="710.792713" y="179.156975" style="fill: #7b5a92; stroke: #7b5a92"/>
     <use xlink:href="#md1b65520bd" x="711.782376" y="230.362857" style="fill: #7b5a92; stroke: #7b5a92"/>
     <use xlink:href="#md1b65520bd" x="712.776468" y="233.466247" style="fill: #7b5a92; stroke: #7b5a92"/>
     <use xlink:href="#md1b65520bd" x="713.769197" y="241.224712" style="fill: #7b5a92; stroke: #7b5a92"/>
    </g>
   </g>
   <g id="line2d_41">
    <path d="M 53.722344 199.32899 
L 745.2 199.32899 
" clip-path="url(#pa7c5263e30)" style="fill: none; stroke: #4c4c4c; stroke-linecap: square"/>
   </g>
   <g id="line2d_42">
    <defs>
     <path id="mb4fe875a35" d="M 0 2.5 
C 0.663008 2.5 1.29895 2.236584 1.767767 1.767767 
C 2.236584 1.29895 2.5 0.663008 2.5 0 
C 2.5 -0.663008 2.236584 -1.29895 1.767767 -1.767767 
C 1.29895 -2.236584 0.663008 -2.5 0 -2.5 
C -0.663008 -2.5 -1.29895 -2.236584 -1.767767 -1.767767 
C -2.236584 -1.29895 -2.5 -0.663008 -2.5 0 
C -2.5 0.663008 -2.236584 1.29895 -1.767767 1.767767 
C -1.29895 2.236584 -0.663008 2.5 0 2.5 
z
" style="stroke: #355f8a"/>
    </defs>
    <g clip-path="url(#pa7c5263e30)">
     <use xlink:href="#mb4fe875a35" x="85.153146" y="298.63737" style="fill: #355f8a; stroke: #355f8a"/>
     <use xlink:href="#mb4fe875a35" x="86.14809" y="264.500114" style="fill: #355f8a; stroke: #355f8a"/>
     <use xlink:href="#mb4fe875a35" x="90.125139" y="177.605281" style="fill: #355f8a; stroke: #355f8a"/>
     <use xlink:href="#mb4fe875a35" x="93.110141" y="72.090127" style="fill: #355f8a; stroke: #355f8a"/>
    </g>
   </g>
   <g id="line2d_43">
    <defs>
     <path id="m243dbe47b4" d="M 0 2.5 
C 0.663008 2.5 1.29895 2.236584 1.767767 1.767767 
C 2.236584 1.29895 2.5 0.663008 2.5 0 
C 2.5 -0.663008 2.236584 -1.29895 1.767767 -1.767767 
C 1.29895 -2.236584 0.663008 -2.5 0 -2.5 
C -0.663008 -2.5 -1.29895 -2.236584 -1.767767 -1.767767 
C -2.236584 -1.29895 -2.5 -0.663008 -2.5 0 
C -2.5 0.663008 -2.236584 1.29895 -1.767767 1.767767 
C -1.29895 2.236584 -0.663008 2.5 0 2.5 
z
" style="stroke: #3f7d64"/>
    </defs>
    <g clip-path="url(#pa7c5263e30)">
     <use xlink:href="#m243dbe47b4" x="335.413435" y="177.605281" style="fill: #3f7d64; stroke: #3f7d64"/>
     <use xlink:href="#m243dbe47b4" x="336.40378" y="227.259471" style="fill: #3f7d64; stroke: #3f7d64"/>
     <use xlink:href="#m243dbe47b4" x="338.390091" y="224.156086" style="fill: #3f7d64; stroke: #3f7d64"/>
     <use xlink:href="#m243dbe47b4" x="339.383501" y="217.949311" style="fill: #3f7d64; stroke: #3f7d64"/>
     <use xlink:href="#m243dbe47b4" x="340.381851" y="121.744316" style="fill: #3f7d64; stroke: #3f7d64"/>
     <use xlink:href="#m243dbe47b4" x="341.372707" y="162.088347" style="fill: #3f7d64; stroke: #3f7d64"/>
     <use xlink:href="#m243dbe47b4" x="342.362882" y="214.845924" style="fill: #3f7d64; stroke: #3f7d64"/>
     <use xlink:href="#m243dbe47b4" x="343.355952" y="214.845924" style="fill: #3f7d64; stroke: #3f7d64"/>
    </g>
   </g>
   <g id="line2d_44">
    <defs>
     <path id="m6d87f66490" d="M 0 2.5 
C 0.663008 2.5 1.29895 2.236584 1.767767 1.767767 
C 2.236584 1.29895 2.5 0.663008 2.5 0 
C 2.5 -0.663008 2.236584 -1.29895 1.767767 -1.767767 
C 1.29895 -2.236584 0.663008 -2.5 0 -2.5 
C -0.663008 -2.5 -1.29895 -2.236584 -1.767767 -1.767767 
C -2.236584 -1.29895 -2.5 -0.663008 -2.5 0 
C -2.5 0.663008 -2.236584 1.29895 -1.767767 1.767767 
C -1.29895 2.236584 -0.663008 2.5 0 2.5 
z
" style="stroke: #b16a2f"/>
    </defs>
    <g clip-path="url(#pa7c5263e30)">
     <use xlink:href="#m6d87f66490" x="454.579624" y="217.949311" style="fill: #b16a2f; stroke: #b16a2f"/>
     <use xlink:href="#m6d87f66490" x="455.578996" y="103.123995" style="fill: #b16a2f; stroke: #b16a2f"/>
     <use xlink:href="#m6d87f66490" x="458.550542" y="242.776408" style="fill: #b16a2f; stroke: #b16a2f"/>
     <use xlink:href="#m6d87f66490" x="460.538896" y="202.432377" style="fill: #b16a2f; stroke: #b16a2f"/>
     <use xlink:href="#m6d87f66490" x="461.53418" y="162.088347" style="fill: #b16a2f; stroke: #b16a2f"/>
     <use xlink:href="#m6d87f66490" x="462.526399" y="177.605281" style="fill: #b16a2f; stroke: #b16a2f"/>
    </g>
   </g>
   <g id="line2d_45">
    <defs>
     <path id="m095a97ddf3" d="M 0 2.5 
C 0.663008 2.5 1.29895 2.236584 1.767767 1.767767 
C 2.236584 1.29895 2.5 0.663008 2.5 0 
C 2.5 -0.663008 2.236584 -1.29895 1.767767 -1.767767 
C 1.29895 -2.236584 0.663008 -2.5 0 -2.5 
C -0.663008 -2.5 -1.29895 -2.236584 -1.767767 -1.767767 
C -2.236584 -1.29895 -2.5 -0.663008 -2.5 0 
C -2.5 0.663008 -2.236584 1.29895 -1.767767 1.767767 
C -1.29895 2.236584 -0.663008 2.5 0 2.5 
z
" style="stroke: #7b5a92"/>
    </defs>
    <g clip-path="url(#pa7c5263e30)">
     <use xlink:href="#m095a97ddf3" x="705.82617" y="221.052699" style="fill: #7b5a92; stroke: #7b5a92"/>
     <use xlink:href="#m095a97ddf3" x="706.822647" y="158.984959" style="fill: #7b5a92; stroke: #7b5a92"/>
     <use xlink:href="#m095a97ddf3" x="707.813162" y="205.535765" style="fill: #7b5a92; stroke: #7b5a92"/>
     <use xlink:href="#m095a97ddf3" x="710.792713" y="199.32899" style="fill: #7b5a92; stroke: #7b5a92"/>
     <use xlink:href="#m095a97ddf3" x="711.782376" y="261.396726" style="fill: #7b5a92; stroke: #7b5a92"/>
     <use xlink:href="#m095a97ddf3" x="712.776468" y="242.776408" style="fill: #7b5a92; stroke: #7b5a92"/>
     <use xlink:href="#m095a97ddf3" x="713.769197" y="248.98318" style="fill: #7b5a92; stroke: #7b5a92"/>
    </g>
   </g>
   <g id="patch_3">
    <path d="M 53.722344 353.877656 
L 53.722344 26.16 
" style="fill: none; stroke: #000000; stroke-width: 0.8; stroke-linejoin: miter; stroke-linecap: square"/>
   </g>
   <g id="patch_4">
    <path d="M 745.2 353.877656 
L 745.2 26.16 
" style="fill: none; stroke: #000000; stroke-width: 0.8; stroke-linejoin: miter; stroke-linecap: square"/>
   </g>
   <g id="patch_5">
    <path d="M 53.722344 353.877656 
L 745.2 353.877656 
" style="fill: none; stroke: #000000; stroke-width: 0.8; stroke-linejoin: miter; stroke-linecap: square"/>
   </g>
   <g id="patch_6">
    <path d="M 53.722344 26.16 
L 745.2 26.16 
" style="fill: none; stroke: #000000; stroke-width: 0.8; stroke-linejoin: miter; stroke-linecap: square"/>
   </g>
   <g id="text_19">
    <!-- TOI-3505.01 box timing check -->
    <g transform="translate(309.050547 20.16) scale(0.12 -0.12)">
     <defs>
      <path id="DejaVuSans-2c" d="M 628 4666 
L 1259 4666 
L 1259 0 
L 628 0 
L 628 4666 
z
" transform="scale(0.015625)"/>
      <path id="DejaVuSans-10" d="M 313 2009 
L 1997 2009 
L 1997 1497 
L 313 1497 
L 313 2009 
z
" transform="scale(0.015625)"/>
      <path id="DejaVuSans-11" d="M 684 794 
L 1344 794 
L 1344 0 
L 684 0 
L 684 794 
z
" transform="scale(0.015625)"/>
      <path id="DejaVuSans-5b" d="M 3513 3500 
L 2247 1797 
L 3578 0 
L 2900 0 
L 1881 1375 
L 863 0 
L 184 0 
L 1544 1831 
L 300 3500 
L 978 3500 
L 1906 2253 
L 2834 3500 
L 3513 3500 
z
" transform="scale(0.015625)"/>
      <path id="DejaVuSans-4b" d="M 3513 2113 
L 3513 0 
L 2938 0 
L 2938 2094 
Q 2938 2591 2744 2837 
Q 2550 3084 2163 3084 
Q 1697 3084 1428 2787 
Q 1159 2491 1159 1978 
L 1159 0 
L 581 0 
L 581 4863 
L 1159 4863 
L 1159 2956 
Q 1366 3272 1645 3428 
Q 1925 3584 2291 3584 
Q 2894 3584 3203 3211 
Q 3513 2838 3513 2113 
z
" transform="scale(0.015625)"/>
      <path id="DejaVuSans-4e" d="M 581 4863 
L 1159 4863 
L 1159 1991 
L 2875 3500 
L 3609 3500 
L 1753 1863 
L 3688 0 
L 2938 0 
L 1159 1709 
L 1159 0 
L 581 0 
L 581 4863 
z
" transform="scale(0.015625)"/>
     </defs>
     <use xlink:href="#DejaVuSans-37"/>
     <use xlink:href="#DejaVuSans-32" transform="translate(61.078125 0)"/>
     <use xlink:href="#DejaVuSans-2c" transform="translate(139.796875 0)"/>
     <use xlink:href="#DejaVuSans-10" transform="translate(169.296875 0)"/>
     <use xlink:href="#DejaVuSans-16" transform="translate(205.375 0)"/>
     <use xlink:href="#DejaVuSans-18" transform="translate(269 0)"/>
     <use xlink:href="#DejaVuSans-13" transform="translate(332.625 0)"/>
     <use xlink:href="#DejaVuSans-18" transform="translate(396.25 0)"/>
     <use xlink:href="#DejaVuSans-11" transform="translate(459.875 0)"/>
     <use xlink:href="#DejaVuSans-13" transform="translate(491.65625 0)"/>
     <use xlink:href="#DejaVuSans-14" transform="translate(555.28125 0)"/>
     <use xlink:href="#DejaVuSans-3" transform="translate(618.90625 0)"/>
     <use xlink:href="#DejaVuSans-45" transform="translate(650.6875 0)"/>
     <use xlink:href="#DejaVuSans-52" transform="translate(714.171875 0)"/>
     <use xlink:href="#DejaVuSans-5b" transform="translate(772.28125 0)"/>
     <use xlink:href="#DejaVuSans-3" transform="translate(831.46875 0)"/>
     <use xlink:href="#DejaVuSans-57" transform="translate(863.25 0)"/>
     <use xlink:href="#DejaVuSans-4c" transform="translate(902.453125 0)"/>
     <use xlink:href="#DejaVuSans-50" transform="translate(930.234375 0)"/>
     <use xlink:href="#DejaVuSans-4c" transform="translate(1027.640625 0)"/>
     <use xlink:href="#DejaVuSans-51" transform="translate(1055.421875 0)"/>
     <use xlink:href="#DejaVuSans-4a" transform="translate(1118.796875 0)"/>
     <use xlink:href="#DejaVuSans-3" transform="translate(1182.28125 0)"/>
     <use xlink:href="#DejaVuSans-46" transform="translate(1214.0625 0)"/>
     <use xlink:href="#DejaVuSans-4b" transform="translate(1269.046875 0)"/>
     <use xlink:href="#DejaVuSans-48" transform="translate(1332.421875 0)"/>
     <use xlink:href="#DejaVuSans-46" transform="translate(1393.953125 0)"/>
     <use xlink:href="#DejaVuSans-4e" transform="translate(1448.9375 0)"/>
    </g>
   </g>
   <g id="legend_1">
    <g id="patch_7">
     <path d="M 369.9875 49.160781 
L 738.2 49.160781 
Q 740.2 49.160781 740.2 47.160781 
L 740.2 33.16 
Q 740.2 31.16 738.2 31.16 
L 369.9875 31.16 
Q 367.9875 31.16 367.9875 33.16 
L 367.9875 47.160781 
Q 367.9875 49.160781 369.9875 49.160781 
z
" style="fill: #ffffff; opacity: 0.8; stroke: #cccccc; stroke-linejoin: miter"/>
    </g>
    <g id="LineCollection_5">
     <path d="M 381.9875 44.258437 
L 381.9875 34.258437 
" style="fill: none; stroke: #355f8a; stroke-width: 1.5"/>
    </g>
    <g id="line2d_46">
     <g>
      <use xlink:href="#m13fbdb72ea" x="381.9875" y="44.258437" style="fill: #355f8a; stroke: #355f8a"/>
     </g>
    </g>
    <g id="line2d_47">
     <g>
      <use xlink:href="#m13fbdb72ea" x="381.9875" y="34.258437" style="fill: #355f8a; stroke: #355f8a"/>
     </g>
    </g>
    <g id="line2d_48"/>
    <g id="line2d_49">
     <g>
      <use xlink:href="#mb4fe875a35" x="381.9875" y="39.258437" style="fill: #355f8a; stroke: #355f8a"/>
     </g>
    </g>
    <g id="text_20">
     <!-- Sector 14 -->
     <g transform="translate(399.9875 42.758437) scale(0.1 -0.1)">
      <defs>
       <path id="DejaVuSans-36" d="M 3425 4513 
L 3425 3897 
Q 3066 4069 2747 4153 
Q 2428 4238 2131 4238 
Q 1616 4238 1336 4038 
Q 1056 3838 1056 3469 
Q 1056 3159 1242 3001 
Q 1428 2844 1947 2747 
L 2328 2669 
Q 3034 2534 3370 2195 
Q 3706 1856 3706 1288 
Q 3706 609 3251 259 
Q 2797 -91 1919 -91 
Q 1588 -91 1214 -16 
Q 841 59 441 206 
L 441 856 
Q 825 641 1194 531 
Q 1563 422 1919 422 
Q 2459 422 2753 634 
Q 3047 847 3047 1241 
Q 3047 1584 2836 1778 
Q 2625 1972 2144 2069 
L 1759 2144 
Q 1053 2284 737 2584 
Q 422 2884 422 3419 
Q 422 4038 858 4394 
Q 1294 4750 2059 4750 
Q 2388 4750 2728 4690 
Q 3069 4631 3425 4513 
z
" transform="scale(0.015625)"/>
      </defs>
      <use xlink:href="#DejaVuSans-36"/>
      <use xlink:href="#DejaVuSans-48" transform="translate(63.484375 0)"/>
      <use xlink:href="#DejaVuSans-46" transform="translate(125.015625 0)"/>
      <use xlink:href="#DejaVuSans-57" transform="translate(180 0)"/>
      <use xlink:href="#DejaVuSans-52" transform="translate(219.203125 0)"/>
      <use xlink:href="#DejaVuSans-55" transform="translate(280.390625 0)"/>
      <use xlink:href="#DejaVuSans-3" transform="translate(321.5 0)"/>
      <use xlink:href="#DejaVuSans-14" transform="translate(353.28125 0)"/>
      <use xlink:href="#DejaVuSans-17" transform="translate(416.90625 0)"/>
     </g>
    </g>
    <g id="LineCollection_6">
     <path d="M 478.040625 44.258437 
L 478.040625 34.258437 
" style="fill: none; stroke: #3f7d64; stroke-width: 1.5"/>
    </g>
    <g id="line2d_50">
     <g>
      <use xlink:href="#mb700a67ca6" x="478.040625" y="44.258437" style="fill: #3f7d64; stroke: #3f7d64"/>
     </g>
    </g>
    <g id="line2d_51">
     <g>
      <use xlink:href="#mb700a67ca6" x="478.040625" y="34.258437" style="fill: #3f7d64; stroke: #3f7d64"/>
     </g>
    </g>
    <g id="line2d_52"/>
    <g id="line2d_53">
     <g>
      <use xlink:href="#m243dbe47b4" x="478.040625" y="39.258437" style="fill: #3f7d64; stroke: #3f7d64"/>
     </g>
    </g>
    <g id="text_21">
     <!-- Sector 41 -->
     <g transform="translate(496.040625 42.758437) scale(0.1 -0.1)">
      <use xlink:href="#DejaVuSans-36"/>
      <use xlink:href="#DejaVuSans-48" transform="translate(63.484375 0)"/>
      <use xlink:href="#DejaVuSans-46" transform="translate(125.015625 0)"/>
      <use xlink:href="#DejaVuSans-57" transform="translate(180 0)"/>
      <use xlink:href="#DejaVuSans-52" transform="translate(219.203125 0)"/>
      <use xlink:href="#DejaVuSans-55" transform="translate(280.390625 0)"/>
      <use xlink:href="#DejaVuSans-3" transform="translate(321.5 0)"/>
      <use xlink:href="#DejaVuSans-17" transform="translate(353.28125 0)"/>
      <use xlink:href="#DejaVuSans-14" transform="translate(416.90625 0)"/>
     </g>
    </g>
    <g id="LineCollection_7">
     <path d="M 574.09375 44.258437 
L 574.09375 34.258437 
" style="fill: none; stroke: #b16a2f; stroke-width: 1.5"/>
    </g>
    <g id="line2d_54">
     <g>
      <use xlink:href="#me0cb085bea" x="574.09375" y="44.258437" style="fill: #b16a2f; stroke: #b16a2f"/>
     </g>
    </g>
    <g id="line2d_55">
     <g>
      <use xlink:href="#me0cb085bea" x="574.09375" y="34.258437" style="fill: #b16a2f; stroke: #b16a2f"/>
     </g>
    </g>
    <g id="line2d_56"/>
    <g id="line2d_57">
     <g>
      <use xlink:href="#m6d87f66490" x="574.09375" y="39.258437" style="fill: #b16a2f; stroke: #b16a2f"/>
     </g>
    </g>
    <g id="text_22">
     <!-- Sector 54 -->
     <g transform="translate(592.09375 42.758437) scale(0.1 -0.1)">
      <use xlink:href="#DejaVuSans-36"/>
      <use xlink:href="#DejaVuSans-48" transform="translate(63.484375 0)"/>
      <use xlink:href="#DejaVuSans-46" transform="translate(125.015625 0)"/>
      <use xlink:href="#DejaVuSans-57" transform="translate(180 0)"/>
      <use xlink:href="#DejaVuSans-52" transform="translate(219.203125 0)"/>
      <use xlink:href="#DejaVuSans-55" transform="translate(280.390625 0)"/>
      <use xlink:href="#DejaVuSans-3" transform="translate(321.5 0)"/>
      <use xlink:href="#DejaVuSans-18" transform="translate(353.28125 0)"/>
      <use xlink:href="#DejaVuSans-17" transform="translate(416.90625 0)"/>
     </g>
    </g>
    <g id="LineCollection_8">
     <path d="M 670.146875 44.258437 
L 670.146875 34.258437 
" style="fill: none; stroke: #7b5a92; stroke-width: 1.5"/>
    </g>
    <g id="line2d_58">
     <g>
      <use xlink:href="#md1b65520bd" x="670.146875" y="44.258437" style="fill: #7b5a92; stroke: #7b5a92"/>
     </g>
    </g>
    <g id="line2d_59">
     <g>
      <use xlink:href="#md1b65520bd" x="670.146875" y="34.258437" style="fill: #7b5a92; stroke: #7b5a92"/>
     </g>
    </g>
    <g id="line2d_60"/>
    <g id="line2d_61">
     <g>
      <use xlink:href="#m095a97ddf3" x="670.146875" y="39.258437" style="fill: #7b5a92; stroke: #7b5a92"/>
     </g>
    </g>
    <g id="text_23">
     <!-- Sector 81 -->
     <g transform="translate(688.146875 42.758437) scale(0.1 -0.1)">
      <defs>
       <path id="DejaVuSans-1b" d="M 2034 2216 
Q 1584 2216 1326 1975 
Q 1069 1734 1069 1313 
Q 1069 891 1326 650 
Q 1584 409 2034 409 
Q 2484 409 2743 651 
Q 3003 894 3003 1313 
Q 3003 1734 2745 1975 
Q 2488 2216 2034 2216 
z
M 1403 2484 
Q 997 2584 770 2862 
Q 544 3141 544 3541 
Q 544 4100 942 4425 
Q 1341 4750 2034 4750 
Q 2731 4750 3128 4425 
Q 3525 4100 3525 3541 
Q 3525 3141 3298 2862 
Q 3072 2584 2669 2484 
Q 3125 2378 3379 2068 
Q 3634 1759 3634 1313 
Q 3634 634 3220 271 
Q 2806 -91 2034 -91 
Q 1263 -91 848 271 
Q 434 634 434 1313 
Q 434 1759 690 2068 
Q 947 2378 1403 2484 
z
M 1172 3481 
Q 1172 3119 1398 2916 
Q 1625 2713 2034 2713 
Q 2441 2713 2670 2916 
Q 2900 3119 2900 3481 
Q 2900 3844 2670 4047 
Q 2441 4250 2034 4250 
Q 1625 4250 1398 4047 
Q 1172 3844 1172 3481 
z
" transform="scale(0.015625)"/>
      </defs>
      <use xlink:href="#DejaVuSans-36"/>
      <use xlink:href="#DejaVuSans-48" transform="translate(63.484375 0)"/>
      <use xlink:href="#DejaVuSans-46" transform="translate(125.015625 0)"/>
      <use xlink:href="#DejaVuSans-57" transform="translate(180 0)"/>
      <use xlink:href="#DejaVuSans-52" transform="translate(219.203125 0)"/>
      <use xlink:href="#DejaVuSans-55" transform="translate(280.390625 0)"/>
      <use xlink:href="#DejaVuSans-3" transform="translate(321.5 0)"/>
      <use xlink:href="#DejaVuSans-1b" transform="translate(353.28125 0)"/>
      <use xlink:href="#DejaVuSans-14" transform="translate(416.90625 0)"/>
     </g>
    </g>
   </g>
  </g>
 </g>
 <defs>
  <clipPath id="pa7c5263e30">
   <rect x="53.722344" y="26.16" width="691.477656" height="327.717656"/>
  </clipPath>
 </defs>
</svg>
