<?xml version="1.0" encoding="utf-8" standalone="no"?>
<!DOCTYPE svg PUBLIC "-//W3C//DTD SVG 1.1//EN"
  "http://www.w3.org/Graphics/SVG/1.1/DTD/svg11.dtd">
<svg xmlns:xlink="http://www.w3.org/1999/xlink" width="662.4pt" height="410.4pt" viewBox="0 0 662.4 410.4" xmlns="http://www.w3.org/2000/svg" version="1.1">
 <metadata>
  <rdf:RDF xmlns:dc="http://purl.org/dc/elements/1.1/" xmlns:cc="http://creativecommons.org/ns#" xmlns:rdf="http://www.w3.org/1999/02/22-rdf-syntax-ns#">
   <cc:Work>
    <dc:type rdf:resource="http://purl.org/dc/dcmitype/StillImage"/>
    <dc:date>2026-07-24T01:46:06.040263</dc:date>
    <dc:format>image/svg+xml</dc:format>
    <dc:creator>
     <cc:Agent>
      <dc:title>Matplotlib v3.11.0, https://matplotlib.org/</dc:title>
     </cc:Agent>
    </dc:creator>
   </cc:Work>
  </rdf:RDF>
 </metadata>
 <defs>
  <style type="text/css">*{stroke-linejoin: round; stroke-linecap: butt}</style>
 </defs>
 <g id="figure_1">
  <g id="patch_1">
   <path d="M 0 410.4 
L 662.4 410.4 
L 662.4 0 
L 0 0 
z
" style="fill: #ffffff"/>
  </g>
  <g id="axes_1">
   <g id="patch_2">
    <path d="M 47.962344 368.277656 
L 651.6 368.277656 
L 651.6 26.16 
L 47.962344 26.16 
z
" style="fill: #ffffff"/>
   </g>
   <g id="matplotlib.axis_1">
    <g id="xtick_1">
     <g id="line2d_1">
      <path d="M 75.400419 368.277656 
L 75.400419 26.16 
" clip-path="url(#p354c00fae8)" style="fill: none; stroke: #b0b0b0; stroke-opacity: 0.18; stroke-width: 0.8; stroke-linecap: square"/>
     </g>
     <g id="line2d_2">
      <defs>
       <path id="mc5ee45b34a" d="M 0 0 
L 0 3.5 
" style="stroke: #000000; stroke-width: 0.8"/>
      </defs>
      <g>
       <use xlink:href="#mc5ee45b34a" x="75.400419" y="368.277656" style="stroke: #000000; stroke-width: 0.8"/>
      </g>
     </g>
     <g id="text_1">
      <!-- 1.5 -->
      <g transform="translate(67.448857 382.875313) scale(0.1 -0.1)">
       <defs>
        <path id="DejaVuSans-14" d="M 794 531 
L 1825 531 
L 1825 4091 
L 703 3866 
L 703 4441 
L 1819 4666 
L 2450 4666 
L 2450 531 
L 3481 531 
L 3481 0 
L 794 0 
L 794 531 
z
" transform="scale(0.015625)"/>
        <path id="DejaVuSans-11" d="M 684 794 
L 1344 794 
L 1344 0 
L 684 0 
L 684 794 
z
" transform="scale(0.015625)"/>
        <path id="DejaVuSans-18" d="M 691 4666 
L 3169 4666 
L 3169 4134 
L 1269 4134 
L 1269 2991 
Q 1406 3038 1543 3061 
Q 1681 3084 1819 3084 
Q 2600 3084 3056 2656 
Q 3513 2228 3513 1497 
Q 3513 744 3044 326 
Q 2575 -91 1722 -91 
Q 1428 -91 1123 -41 
Q 819 9 494 109 
L 494 744 
Q 775 591 1075 516 
Q 1375 441 1709 441 
Q 2250 441 2565 725 
Q 2881 1009 2881 1497 
Q 2881 1984 2565 2268 
Q 2250 2553 1709 2553 
Q 1456 2553 1204 2497 
Q 953 2441 691 2322 
L 691 4666 
z
" transform="scale(0.015625)"/>
       </defs>
       <use xlink:href="#DejaVuSans-14"/>
       <use xlink:href="#DejaVuSans-11" transform="translate(63.625 0)"/>
       <use xlink:href="#DejaVuSans-18" transform="translate(95.40625 0)"/>
      </g>
     </g>
    </g>
    <g id="xtick_2">
     <g id="line2d_3">
      <path d="M 185.15272 368.277656 
L 185.15272 26.16 
" clip-path="url(#p354c00fae8)" style="fill: none; stroke: #b0b0b0; stroke-opacity: 0.18; stroke-width: 0.8; stroke-linecap: square"/>
     </g>
     <g id="line2d_4">
      <g>
       <use xlink:href="#mc5ee45b34a" x="185.15272" y="368.277656" style="stroke: #000000; stroke-width: 0.8"/>
      </g>
     </g>
     <g id="text_2">
      <!-- 2.0 -->
      <g transform="translate(177.201158 382.875313) scale(0.1 -0.1)">
       <defs>
        <path id="DejaVuSans-15" d="M 1228 531 
L 3431 531 
L 3431 0 
L 469 0 
L 469 531 
Q 828 903 1448 1529 
Q 2069 2156 2228 2338 
Q 2531 2678 2651 2914 
Q 2772 3150 2772 3378 
Q 2772 3750 2511 3984 
Q 2250 4219 1831 4219 
Q 1534 4219 1204 4116 
Q 875 4013 500 3803 
L 500 4441 
Q 881 4594 1212 4672 
Q 1544 4750 1819 4750 
Q 2544 4750 2975 4387 
Q 3406 4025 3406 3419 
Q 3406 3131 3298 2873 
Q 3191 2616 2906 2266 
Q 2828 2175 2409 1742 
Q 1991 1309 1228 531 
z
" transform="scale(0.015625)"/>
        <path id="DejaVuSans-13" d="M 2034 4250 
Q 1547 4250 1301 3770 
Q 1056 3291 1056 2328 
Q 1056 1369 1301 889 
Q 1547 409 2034 409 
Q 2525 409 2770 889 
Q 3016 1369 3016 2328 
Q 3016 3291 2770 3770 
Q 2525 4250 2034 4250 
z
M 2034 4750 
Q 2819 4750 3233 4129 
Q 3647 3509 3647 2328 
Q 3647 1150 3233 529 
Q 2819 -91 2034 -91 
Q 1250 -91 836 529 
Q 422 1150 422 2328 
Q 422 3509 836 4129 
Q 1250 4750 2034 4750 
z
" transform="scale(0.015625)"/>
       </defs>
       <use xlink:href="#DejaVuSans-15"/>
       <use xlink:href="#DejaVuSans-11" transform="translate(63.625 0)"/>
       <use xlink:href="#DejaVuSans-13" transform="translate(95.40625 0)"/>
      </g>
     </g>
    </g>
    <g id="xtick_3">
     <g id="line2d_5">
      <path d="M 294.905021 368.277656 
L 294.905021 26.16 
" clip-path="url(#p354c00fae8)" style="fill: none; stroke: #b0b0b0; stroke-opacity: 0.18; stroke-width: 0.8; stroke-linecap: square"/>
     </g>
     <g id="line2d_6">
      <g>
       <use xlink:href="#mc5ee45b34a" x="294.905021" y="368.277656" style="stroke: #000000; stroke-width: 0.8"/>
      </g>
     </g>
     <g id="text_3">
      <!-- 2.5 -->
      <g transform="translate(286.953459 382.875313) scale(0.1 -0.1)">
       <use xlink:href="#DejaVuSans-15"/>
       <use xlink:href="#DejaVuSans-11" transform="translate(63.625 0)"/>
       <use xlink:href="#DejaVuSans-18" transform="translate(95.40625 0)"/>
      </g>
     </g>
    </g>
    <g id="xtick_4">
     <g id="line2d_7">
      <path d="M 404.657322 368.277656 
L 404.657322 26.16 
" clip-path="url(#p354c00fae8)" style="fill: none; stroke: #b0b0b0; stroke-opacity: 0.18; stroke-width: 0.8; stroke-linecap: square"/>
     </g>
     <g id="line2d_8">
      <g>
       <use xlink:href="#mc5ee45b34a" x="404.657322" y="368.277656" style="stroke: #000000; stroke-width: 0.8"/>
      </g>
     </g>
     <g id="text_4">
      <!-- 3.0 -->
      <g transform="translate(396.70576 382.875313) scale(0.1 -0.1)">
       <defs>
        <path id="DejaVuSans-16" d="M 2597 2516 
Q 3050 2419 3304 2112 
Q 3559 1806 3559 1356 
Q 3559 666 3084 287 
Q 2609 -91 1734 -91 
Q 1441 -91 1130 -33 
Q 819 25 488 141 
L 488 750 
Q 750 597 1062 519 
Q 1375 441 1716 441 
Q 2309 441 2620 675 
Q 2931 909 2931 1356 
Q 2931 1769 2642 2001 
Q 2353 2234 1838 2234 
L 1294 2234 
L 1294 2753 
L 1863 2753 
Q 2328 2753 2575 2939 
Q 2822 3125 2822 3475 
Q 2822 3834 2567 4026 
Q 2313 4219 1838 4219 
Q 1578 4219 1281 4162 
Q 984 4106 628 3988 
L 628 4550 
Q 988 4650 1302 4700 
Q 1616 4750 1894 4750 
Q 2613 4750 3031 4423 
Q 3450 4097 3450 3541 
Q 3450 3153 3228 2886 
Q 3006 2619 2597 2516 
z
" transform="scale(0.015625)"/>
       </defs>
       <use xlink:href="#DejaVuSans-16"/>
       <use xlink:href="#DejaVuSans-11" transform="translate(63.625 0)"/>
       <use xlink:href="#DejaVuSans-13" transform="translate(95.40625 0)"/>
      </g>
     </g>
    </g>
    <g id="xtick_5">
     <g id="line2d_9">
      <path d="M 514.409624 368.277656 
L 514.409624 26.16 
" clip-path="url(#p354c00fae8)" style="fill: none; stroke: #b0b0b0; stroke-opacity: 0.18; stroke-width: 0.8; stroke-linecap: square"/>
     </g>
     <g id="line2d_10">
      <g>
       <use xlink:href="#mc5ee45b34a" x="514.409624" y="368.277656" style="stroke: #000000; stroke-width: 0.8"/>
      </g>
     </g>
     <g id="text_5">
      <!-- 3.5 -->
      <g transform="translate(506.458061 382.875313) scale(0.1 -0.1)">
       <use xlink:href="#DejaVuSans-16"/>
       <use xlink:href="#DejaVuSans-11" transform="translate(63.625 0)"/>
       <use xlink:href="#DejaVuSans-18" transform="translate(95.40625 0)"/>
      </g>
     </g>
    </g>
    <g id="xtick_6">
     <g id="line2d_11">
      <path d="M 624.161925 368.277656 
L 624.161925 26.16 
" clip-path="url(#p354c00fae8)" style="fill: none; stroke: #b0b0b0; stroke-opacity: 0.18; stroke-width: 0.8; stroke-linecap: square"/>
     </g>
     <g id="line2d_12">
      <g>
       <use xlink:href="#mc5ee45b34a" x="624.161925" y="368.277656" style="stroke: #000000; stroke-width: 0.8"/>
      </g>
     </g>
     <g id="text_6">
      <!-- 4.0 -->
      <g transform="translate(616.210362 382.875313) scale(0.1 -0.1)">
       <defs>
        <path id="DejaVuSans-17" d="M 2419 4116 
L 825 1625 
L 2419 1625 
L 2419 4116 
z
M 2253 4666 
L 3047 4666 
L 3047 1625 
L 3713 1625 
L 3713 1100 
L 3047 1100 
L 3047 0 
L 2419 0 
L 2419 1100 
L 313 1100 
L 313 1709 
L 2253 4666 
z
" transform="scale(0.015625)"/>
       </defs>
       <use xlink:href="#DejaVuSans-17"/>
       <use xlink:href="#DejaVuSans-11" transform="translate(63.625 0)"/>
       <use xlink:href="#DejaVuSans-13" transform="translate(95.40625 0)"/>
      </g>
     </g>
    </g>
    <g id="text_7">
     <!-- Circular aperture radius (TESS pixels) -->
     <g transform="translate(256.292891 396.876094) scale(0.1 -0.1)">
      <defs>
       <path id="DejaVuSans-26" d="M 4122 4306 
L 4122 3641 
Q 3803 3938 3442 4084 
Q 3081 4231 2675 4231 
Q 1875 4231 1450 3742 
Q 1025 3253 1025 2328 
Q 1025 1406 1450 917 
Q 1875 428 2675 428 
Q 3081 428 3442 575 
Q 3803 722 4122 1019 
L 4122 359 
Q 3791 134 3420 21 
Q 3050 -91 2638 -91 
Q 1578 -91 968 557 
Q 359 1206 359 2328 
Q 359 3453 968 4101 
Q 1578 4750 2638 4750 
Q 3056 4750 3426 4639 
Q 3797 4528 4122 4306 
z
" transform="scale(0.015625)"/>
       <path id="DejaVuSans-4c" d="M 603 3500 
L 1178 3500 
L 1178 0 
L 603 0 
L 603 3500 
z
M 603 4863 
L 1178 4863 
L 1178 4134 
L 603 4134 
L 603 4863 
z
" transform="scale(0.015625)"/>
       <path id="DejaVuSans-55" d="M 2631 2963 
Q 2534 3019 2420 3045 
Q 2306 3072 2169 3072 
Q 1681 3072 1420 2755 
Q 1159 2438 1159 1844 
L 1159 0 
L 581 0 
L 581 3500 
L 1159 3500 
L 1159 2956 
Q 1341 3275 1631 3429 
Q 1922 3584 2338 3584 
Q 2397 3584 2469 3576 
Q 2541 3569 2628 3553 
L 2631 2963 
z
" transform="scale(0.015625)"/>
       <path id="DejaVuSans-46" d="M 3122 3366 
L 3122 2828 
Q 2878 2963 2633 3030 
Q 2388 3097 2138 3097 
Q 1578 3097 1268 2742 
Q 959 2388 959 1747 
Q 959 1106 1268 751 
Q 1578 397 2138 397 
Q 2388 397 2633 464 
Q 2878 531 3122 666 
L 3122 134 
Q 2881 22 2623 -34 
Q 2366 -91 2075 -91 
Q 1284 -91 818 406 
Q 353 903 353 1747 
Q 353 2603 823 3093 
Q 1294 3584 2113 3584 
Q 2378 3584 2631 3529 
Q 2884 3475 3122 3366 
z
" transform="scale(0.015625)"/>
       <path id="DejaVuSans-58" d="M 544 1381 
L 544 3500 
L 1119 3500 
L 1119 1403 
Q 1119 906 1312 657 
Q 1506 409 1894 409 
Q 2359 409 2629 706 
Q 2900 1003 2900 1516 
L 2900 3500 
L 3475 3500 
L 3475 0 
L 2900 0 
L 2900 538 
Q 2691 219 2414 64 
Q 2138 -91 1772 -91 
Q 1169 -91 856 284 
Q 544 659 544 1381 
z
M 1991 3584 
L 1991 3584 
z
" transform="scale(0.015625)"/>
       <path id="DejaVuSans-4f" d="M 603 4863 
L 1178 4863 
L 1178 0 
L 603 0 
L 603 4863 
z
" transform="scale(0.015625)"/>
       <path id="DejaVuSans-44" d="M 2194 1759 
Q 1497 1759 1228 1600 
Q 959 1441 959 1056 
Q 959 750 1161 570 
Q 1363 391 1709 391 
Q 2188 391 2477 730 
Q 2766 1069 2766 1631 
L 2766 1759 
L 2194 1759 
z
M 3341 1997 
L 3341 0 
L 2766 0 
L 2766 531 
Q 2569 213 2275 61 
Q 1981 -91 1556 -91 
Q 1019 -91 701 211 
Q 384 513 384 1019 
Q 384 1609 779 1909 
Q 1175 2209 1959 2209 
L 2766 2209 
L 2766 2266 
Q 2766 2663 2505 2880 
Q 2244 3097 1772 3097 
Q 1472 3097 1187 3025 
Q 903 2953 641 2809 
L 641 3341 
Q 956 3463 1253 3523 
Q 1550 3584 1831 3584 
Q 2591 3584 2966 3190 
Q 3341 2797 3341 1997 
z
" transform="scale(0.015625)"/>
       <path id="DejaVuSans-3" transform="scale(0.015625)"/>
       <path id="DejaVuSans-53" d="M 1159 525 
L 1159 -1331 
L 581 -1331 
L 581 3500 
L 1159 3500 
L 1159 2969 
Q 1341 3281 1617 3432 
Q 1894 3584 2278 3584 
Q 2916 3584 3314 3078 
Q 3713 2572 3713 1747 
Q 3713 922 3314 415 
Q 2916 -91 2278 -91 
Q 1894 -91 1617 61 
Q 1341 213 1159 525 
z
M 3116 1747 
Q 3116 2381 2855 2742 
Q 2594 3103 2138 3103 
Q 1681 3103 1420 2742 
Q 1159 2381 1159 1747 
Q 1159 1113 1420 752 
Q 1681 391 2138 391 
Q 2594 391 2855 752 
Q 3116 1113 3116 1747 
z
" transform="scale(0.015625)"/>
       <path id="DejaVuSans-48" d="M 3597 1894 
L 3597 1613 
L 953 1613 
Q 991 1019 1311 708 
Q 1631 397 2203 397 
Q 2534 397 2845 478 
Q 3156 559 3463 722 
L 3463 178 
Q 3153 47 2828 -22 
Q 2503 -91 2169 -91 
Q 1331 -91 842 396 
Q 353 884 353 1716 
Q 353 2575 817 3079 
Q 1281 3584 2069 3584 
Q 2775 3584 3186 3129 
Q 3597 2675 3597 1894 
z
M 3022 2063 
Q 3016 2534 2758 2815 
Q 2500 3097 2075 3097 
Q 1594 3097 1305 2825 
Q 1016 2553 972 2059 
L 3022 2063 
z
" transform="scale(0.015625)"/>
       <path id="DejaVuSans-57" d="M 1172 4494 
L 1172 3500 
L 2356 3500 
L 2356 3053 
L 1172 3053 
L 1172 1153 
Q 1172 725 1289 603 
Q 1406 481 1766 481 
L 2356 481 
L 2356 0 
L 1766 0 
Q 1100 0 847 248 
Q 594 497 594 1153 
L 594 3053 
L 172 3053 
L 172 3500 
L 594 3500 
L 594 4494 
L 1172 4494 
z
" transform="scale(0.015625)"/>
       <path id="DejaVuSans-47" d="M 2906 2969 
L 2906 4863 
L 3481 4863 
L 3481 0 
L 2906 0 
L 2906 525 
Q 2725 213 2448 61 
Q 2172 -91 1784 -91 
Q 1150 -91 751 415 
Q 353 922 353 1747 
Q 353 2572 751 3078 
Q 1150 3584 1784 3584 
Q 2172 3584 2448 3432 
Q 2725 3281 2906 2969 
z
M 947 1747 
Q 947 1113 1208 752 
Q 1469 391 1925 391 
Q 2381 391 2643 752 
Q 2906 1113 2906 1747 
Q 2906 2381 2643 2742 
Q 2381 3103 1925 3103 
Q 1469 3103 1208 2742 
Q 947 2381 947 1747 
z
" transform="scale(0.015625)"/>
       <path id="DejaVuSans-56" d="M 2834 3397 
L 2834 2853 
Q 2591 2978 2328 3040 
Q 2066 3103 1784 3103 
Q 1356 3103 1142 2972 
Q 928 2841 928 2578 
Q 928 2378 1081 2264 
Q 1234 2150 1697 2047 
L 1894 2003 
Q 2506 1872 2764 1633 
Q 3022 1394 3022 966 
Q 3022 478 2636 193 
Q 2250 -91 1575 -91 
Q 1294 -91 989 -36 
Q 684 19 347 128 
L 347 722 
Q 666 556 975 473 
Q 1284 391 1588 391 
Q 1994 391 2212 530 
Q 2431 669 2431 922 
Q 2431 1156 2273 1281 
Q 2116 1406 1581 1522 
L 1381 1569 
Q 847 1681 609 1914 
Q 372 2147 372 2553 
Q 372 3047 722 3315 
Q 1072 3584 1716 3584 
Q 2034 3584 2315 3537 
Q 2597 3491 2834 3397 
z
" transform="scale(0.015625)"/>
       <path id="DejaVuSans-b" d="M 1984 4856 
Q 1566 4138 1362 3434 
Q 1159 2731 1159 2009 
Q 1159 1288 1364 580 
Q 1569 -128 1984 -844 
L 1484 -844 
Q 1016 -109 783 600 
Q 550 1309 550 2009 
Q 550 2706 781 3412 
Q 1013 4119 1484 4856 
L 1984 4856 
z
" transform="scale(0.015625)"/>
       <path id="DejaVuSans-37" d="M -19 4666 
L 3928 4666 
L 3928 4134 
L 2272 4134 
L 2272 0 
L 1638 0 
L 1638 4134 
L -19 4134 
L -19 4666 
z
" transform="scale(0.015625)"/>
       <path id="DejaVuSans-28" d="M 628 4666 
L 3578 4666 
L 3578 4134 
L 1259 4134 
L 1259 2753 
L 3481 2753 
L 3481 2222 
L 1259 2222 
L 1259 531 
L 3634 531 
L 3634 0 
L 628 0 
L 628 4666 
z
" transform="scale(0.015625)"/>
       <path id="DejaVuSans-36" d="M 3425 4513 
L 3425 3897 
Q 3066 4069 2747 4153 
Q 2428 4238 2131 4238 
Q 1616 4238 1336 4038 
Q 1056 3838 1056 3469 
Q 1056 3159 1242 3001 
Q 1428 2844 1947 2747 
L 2328 2669 
Q 3034 2534 3370 2195 
Q 3706 1856 3706 1288 
Q 3706 609 3251 259 
Q 2797 -91 1919 -91 
Q 1588 -91 1214 -16 
Q 841 59 441 206 
L 441 856 
Q 825 641 1194 531 
Q 1563 422 1919 422 
Q 2459 422 2753 634 
Q 3047 847 3047 1241 
Q 3047 1584 2836 1778 
Q 2625 1972 2144 2069 
L 1759 2144 
Q 1053 2284 737 2584 
Q 422 2884 422 3419 
Q 422 4038 858 4394 
Q 1294 4750 2059 4750 
Q 2388 4750 2728 4690 
Q 3069 4631 3425 4513 
z
" transform="scale(0.015625)"/>
       <path id="DejaVuSans-5b" d="M 3513 3500 
L 2247 1797 
L 3578 0 
L 2900 0 
L 1881 1375 
L 863 0 
L 184 0 
L 1544 1831 
L 300 3500 
L 978 3500 
L 1906 2253 
L 2834 3500 
L 3513 3500 
z
" transform="scale(0.015625)"/>
       <path id="DejaVuSans-c" d="M 513 4856 
L 1013 4856 
Q 1481 4119 1714 3412 
Q 1947 2706 1947 2009 
Q 1947 1309 1714 600 
Q 1481 -109 1013 -844 
L 513 -844 
Q 928 -128 1133 580 
Q 1338 1288 1338 2009 
Q 1338 2731 1133 3434 
Q 928 4138 513 4856 
z
" transform="scale(0.015625)"/>
      </defs>
      <use xlink:href="#DejaVuSans-26"/>
      <use xlink:href="#DejaVuSans-4c" transform="translate(69.828125 0)"/>
      <use xlink:href="#DejaVuSans-55" transform="translate(97.609375 0)"/>
      <use xlink:href="#DejaVuSans-46" transform="translate(136.515625 0)"/>
      <use xlink:href="#DejaVuSans-58" transform="translate(191.5 0)"/>
      <use xlink:href="#DejaVuSans-4f" transform="translate(254.875 0)"/>
      <use xlink:href="#DejaVuSans-44" transform="translate(282.65625 0)"/>
      <use xlink:href="#DejaVuSans-55" transform="translate(343.9375 0)"/>
      <use xlink:href="#DejaVuSans-3" transform="translate(385.046875 0)"/>
      <use xlink:href="#DejaVuSans-44" transform="translate(416.828125 0)"/>
      <use xlink:href="#DejaVuSans-53" transform="translate(478.109375 0)"/>
      <use xlink:href="#DejaVuSans-48" transform="translate(541.59375 0)"/>
      <use xlink:href="#DejaVuSans-55" transform="translate(603.125 0)"/>
      <use xlink:href="#DejaVuSans-57" transform="translate(644.234375 0)"/>
      <use xlink:href="#DejaVuSans-58" transform="translate(683.4375 0)"/>
      <use xlink:href="#DejaVuSans-55" transform="translate(746.8125 0)"/>
      <use xlink:href="#DejaVuSans-48" transform="translate(785.71875 0)"/>
      <use xlink:href="#DejaVuSans-3" transform="translate(847.25 0)"/>
      <use xlink:href="#DejaVuSans-55" transform="translate(879.03125 0)"/>
      <use xlink:href="#DejaVuSans-44" transform="translate(920.140625 0)"/>
      <use xlink:href="#DejaVuSans-47" transform="translate(981.421875 0)"/>
      <use xlink:href="#DejaVuSans-4c" transform="translate(1044.90625 0)"/>
      <use xlink:href="#DejaVuSans-58" transform="translate(1072.6875 0)"/>
      <use xlink:href="#DejaVuSans-56" transform="translate(1136.0625 0)"/>
      <use xlink:href="#DejaVuSans-3" transform="translate(1188.15625 0)"/>
      <use xlink:href="#DejaVuSans-b" transform="translate(1219.9375 0)"/>
      <use xlink:href="#DejaVuSans-37" transform="translate(1258.953125 0)"/>
      <use xlink:href="#DejaVuSans-28" transform="translate(1320.03125 0)"/>
      <use xlink:href="#DejaVuSans-36" transform="translate(1383.21875 0)"/>
      <use xlink:href="#DejaVuSans-36" transform="translate(1446.703125 0)"/>
      <use xlink:href="#DejaVuSans-3" transform="translate(1510.1875 0)"/>
      <use xlink:href="#DejaVuSans-53" transform="translate(1541.96875 0)"/>
      <use xlink:href="#DejaVuSans-4c" transform="translate(1605.453125 0)"/>
      <use xlink:href="#DejaVuSans-5b" transform="translate(1633.234375 0)"/>
      <use xlink:href="#DejaVuSans-48" transform="translate(1689.34375 0)"/>
      <use xlink:href="#DejaVuSans-4f" transform="translate(1750.875 0)"/>
      <use xlink:href="#DejaVuSans-56" transform="translate(1778.65625 0)"/>
      <use xlink:href="#DejaVuSans-c" transform="translate(1830.75 0)"/>
     </g>
    </g>
   </g>
   <g id="matplotlib.axis_2">
    <g id="ytick_1">
     <g id="line2d_13">
      <path d="M 47.962344 310.445415 
L 651.6 310.445415 
" clip-path="url(#p354c00fae8)" style="fill: none; stroke: #b0b0b0; stroke-opacity: 0.18; stroke-width: 0.8; stroke-linecap: square"/>
     </g>
     <g id="line2d_14">
      <defs>
       <path id="meb3de48e62" d="M 0 0 
L -3.5 0 
" style="stroke: #000000; stroke-width: 0.8"/>
      </defs>
      <g>
       <use xlink:href="#meb3de48e62" x="47.962344" y="310.445415" style="stroke: #000000; stroke-width: 0.8"/>
      </g>
     </g>
     <g id="text_8">
      <!-- 1.0 -->
      <g transform="translate(25.059219 314.244243) scale(0.1 -0.1)">
       <use xlink:href="#DejaVuSans-14"/>
       <use xlink:href="#DejaVuSans-11" transform="translate(63.625 0)"/>
       <use xlink:href="#DejaVuSans-13" transform="translate(95.40625 0)"/>
      </g>
     </g>
    </g>
    <g id="ytick_2">
     <g id="line2d_15">
      <path d="M 47.962344 246.216742 
L 651.6 246.216742 
" clip-path="url(#p354c00fae8)" style="fill: none; stroke: #b0b0b0; stroke-opacity: 0.18; stroke-width: 0.8; stroke-linecap: square"/>
     </g>
     <g id="line2d_16">
      <g>
       <use xlink:href="#meb3de48e62" x="47.962344" y="246.216742" style="stroke: #000000; stroke-width: 0.8"/>
      </g>
     </g>
     <g id="text_9">
      <!-- 1.5 -->
      <g transform="translate(25.059219 250.01557) scale(0.1 -0.1)">
       <use xlink:href="#DejaVuSans-14"/>
       <use xlink:href="#DejaVuSans-11" transform="translate(63.625 0)"/>
       <use xlink:href="#DejaVuSans-18" transform="translate(95.40625 0)"/>
      </g>
     </g>
    </g>
    <g id="ytick_3">
     <g id="line2d_17">
      <path d="M 47.962344 181.98807 
L 651.6 181.98807 
" clip-path="url(#p354c00fae8)" style="fill: none; stroke: #b0b0b0; stroke-opacity: 0.18; stroke-width: 0.8; stroke-linecap: square"/>
     </g>
     <g id="line2d_18">
      <g>
       <use xlink:href="#meb3de48e62" x="47.962344" y="181.98807" style="stroke: #000000; stroke-width: 0.8"/>
      </g>
     </g>
     <g id="text_10">
      <!-- 2.0 -->
      <g transform="translate(25.059219 185.786898) scale(0.1 -0.1)">
       <use xlink:href="#DejaVuSans-15"/>
       <use xlink:href="#DejaVuSans-11" transform="translate(63.625 0)"/>
       <use xlink:href="#DejaVuSans-13" transform="translate(95.40625 0)"/>
      </g>
     </g>
    </g>
    <g id="ytick_4">
     <g id="line2d_19">
      <path d="M 47.962344 117.759398 
L 651.6 117.759398 
" clip-path="url(#p354c00fae8)" style="fill: none; stroke: #b0b0b0; stroke-opacity: 0.18; stroke-width: 0.8; stroke-linecap: square"/>
     </g>
     <g id="line2d_20">
      <g>
       <use xlink:href="#meb3de48e62" x="47.962344" y="117.759398" style="stroke: #000000; stroke-width: 0.8"/>
      </g>
     </g>
     <g id="text_11">
      <!-- 2.5 -->
      <g transform="translate(25.059219 121.558226) scale(0.1 -0.1)">
       <use xlink:href="#DejaVuSans-15"/>
       <use xlink:href="#DejaVuSans-11" transform="translate(63.625 0)"/>
       <use xlink:href="#DejaVuSans-18" transform="translate(95.40625 0)"/>
      </g>
     </g>
    </g>
    <g id="ytick_5">
     <g id="line2d_21">
      <path d="M 47.962344 53.530726 
L 651.6 53.530726 
" clip-path="url(#p354c00fae8)" style="fill: none; stroke: #b0b0b0; stroke-opacity: 0.18; stroke-width: 0.8; stroke-linecap: square"/>
     </g>
     <g id="line2d_22">
      <g>
       <use xlink:href="#meb3de48e62" x="47.962344" y="53.530726" style="stroke: #000000; stroke-width: 0.8"/>
      </g>
     </g>
     <g id="text_12">
      <!-- 3.0 -->
      <g transform="translate(25.059219 57.329554) scale(0.1 -0.1)">
       <use xlink:href="#DejaVuSans-16"/>
       <use xlink:href="#DejaVuSans-11" transform="translate(63.625 0)"/>
       <use xlink:href="#DejaVuSans-13" transform="translate(95.40625 0)"/>
      </g>
     </g>
    </g>
    <g id="text_13">
     <!-- Observed box depth (ppt) -->
     <g transform="translate(18.656875 261.846172) rotate(-90) scale(0.1 -0.1)">
      <defs>
       <path id="DejaVuSans-32" d="M 2522 4238 
Q 1834 4238 1429 3725 
Q 1025 3213 1025 2328 
Q 1025 1447 1429 934 
Q 1834 422 2522 422 
Q 3209 422 3611 934 
Q 4013 1447 4013 2328 
Q 4013 3213 3611 3725 
Q 3209 4238 2522 4238 
z
M 2522 4750 
Q 3503 4750 4090 4092 
Q 4678 3434 4678 2328 
Q 4678 1225 4090 567 
Q 3503 -91 2522 -91 
Q 1538 -91 948 565 
Q 359 1222 359 2328 
Q 359 3434 948 4092 
Q 1538 4750 2522 4750 
z
" transform="scale(0.015625)"/>
       <path id="DejaVuSans-45" d="M 3116 1747 
Q 3116 2381 2855 2742 
Q 2594 3103 2138 3103 
Q 1681 3103 1420 2742 
Q 1159 2381 1159 1747 
Q 1159 1113 1420 752 
Q 1681 391 2138 391 
Q 2594 391 2855 752 
Q 3116 1113 3116 1747 
z
M 1159 2969 
Q 1341 3281 1617 3432 
Q 1894 3584 2278 3584 
Q 2916 3584 3314 3078 
Q 3713 2572 3713 1747 
Q 3713 922 3314 415 
Q 2916 -91 2278 -91 
Q 1894 -91 1617 61 
Q 1341 213 1159 525 
L 1159 0 
L 581 0 
L 581 4863 
L 1159 4863 
L 1159 2969 
z
" transform="scale(0.015625)"/>
       <path id="DejaVuSans-59" d="M 191 3500 
L 800 3500 
L 1894 563 
L 2988 3500 
L 3597 3500 
L 2284 0 
L 1503 0 
L 191 3500 
z
" transform="scale(0.015625)"/>
       <path id="DejaVuSans-52" d="M 1959 3097 
Q 1497 3097 1228 2736 
Q 959 2375 959 1747 
Q 959 1119 1226 758 
Q 1494 397 1959 397 
Q 2419 397 2687 759 
Q 2956 1122 2956 1747 
Q 2956 2369 2687 2733 
Q 2419 3097 1959 3097 
z
M 1959 3584 
Q 2709 3584 3137 3096 
Q 3566 2609 3566 1747 
Q 3566 888 3137 398 
Q 2709 -91 1959 -91 
Q 1206 -91 779 398 
Q 353 888 353 1747 
Q 353 2609 779 3096 
Q 1206 3584 1959 3584 
z
" transform="scale(0.015625)"/>
       <path id="DejaVuSans-4b" d="M 3513 2113 
L 3513 0 
L 2938 0 
L 2938 2094 
Q 2938 2591 2744 2837 
Q 2550 3084 2163 3084 
Q 1697 3084 1428 2787 
Q 1159 2491 1159 1978 
L 1159 0 
L 581 0 
L 581 4863 
L 1159 4863 
L 1159 2956 
Q 1366 3272 1645 3428 
Q 1925 3584 2291 3584 
Q 2894 3584 3203 3211 
Q 3513 2838 3513 2113 
z
" transform="scale(0.015625)"/>
      </defs>
      <use xlink:href="#DejaVuSans-32"/>
      <use xlink:href="#DejaVuSans-45" transform="translate(78.71875 0)"/>
      <use xlink:href="#DejaVuSans-56" transform="translate(142.203125 0)"/>
      <use xlink:href="#DejaVuSans-48" transform="translate(194.296875 0)"/>
      <use xlink:href="#DejaVuSans-55" transform="translate(255.828125 0)"/>
      <use xlink:href="#DejaVuSans-59" transform="translate(296.9375 0)"/>
      <use xlink:href="#DejaVuSans-48" transform="translate(356.125 0)"/>
      <use xlink:href="#DejaVuSans-47" transform="translate(417.65625 0)"/>
      <use xlink:href="#DejaVuSans-3" transform="translate(481.140625 0)"/>
      <use xlink:href="#DejaVuSans-45" transform="translate(512.921875 0)"/>
      <use xlink:href="#DejaVuSans-52" transform="translate(576.40625 0)"/>
      <use xlink:href="#DejaVuSans-5b" transform="translate(634.515625 0)"/>
      <use xlink:href="#DejaVuSans-3" transform="translate(693.703125 0)"/>
      <use xlink:href="#DejaVuSans-47" transform="translate(725.484375 0)"/>
      <use xlink:href="#DejaVuSans-48" transform="translate(788.96875 0)"/>
      <use xlink:href="#DejaVuSans-53" transform="translate(850.5 0)"/>
      <use xlink:href="#DejaVuSans-57" transform="translate(913.984375 0)"/>
      <use xlink:href="#DejaVuSans-4b" transform="translate(953.1875 0)"/>
      <use xlink:href="#DejaVuSans-3" transform="translate(1016.5625 0)"/>
      <use xlink:href="#DejaVuSans-b" transform="translate(1048.34375 0)"/>
      <use xlink:href="#DejaVuSans-53" transform="translate(1087.359375 0)"/>
      <use xlink:href="#DejaVuSans-53" transform="translate(1150.84375 0)"/>
      <use xlink:href="#DejaVuSans-57" transform="translate(1214.328125 0)"/>
      <use xlink:href="#DejaVuSans-c" transform="translate(1253.53125 0)"/>
     </g>
    </g>
   </g>
   <g id="LineCollection_1">
    <path d="M 75.400419 101.226046 
L 75.400419 41.710803 
" clip-path="url(#p354c00fae8)" style="fill: none; stroke: #1f77b4; stroke-width: 1.2"/>
    <path d="M 185.15272 146.959573 
L 185.15272 69.965102 
" clip-path="url(#p354c00fae8)" style="fill: none; stroke: #1f77b4; stroke-width: 1.2"/>
    <path d="M 294.905021 179.596599 
L 294.905021 101.009676 
" clip-path="url(#p354c00fae8)" style="fill: none; stroke: #1f77b4; stroke-width: 1.2"/>
    <path d="M 404.657322 224.557917 
L 404.657322 149.167744 
" clip-path="url(#p354c00fae8)" style="fill: none; stroke: #1f77b4; stroke-width: 1.2"/>
    <path d="M 514.409624 255.904974 
L 514.409624 177.114642 
" clip-path="url(#p354c00fae8)" style="fill: none; stroke: #1f77b4; stroke-width: 1.2"/>
    <path d="M 624.161925 270.681329 
L 624.161925 184.603483 
" clip-path="url(#p354c00fae8)" style="fill: none; stroke: #1f77b4; stroke-width: 1.2"/>
   </g>
   <g id="line2d_23">
    <defs>
     <path id="mf40e9b60cd" d="M 3 0 
L -3 -0 
" style="stroke: #1f77b4"/>
    </defs>
    <g clip-path="url(#p354c00fae8)">
     <use xlink:href="#mf40e9b60cd" x="75.400419" y="101.226046" style="fill: #1f77b4; stroke: #1f77b4"/>
     <use xlink:href="#mf40e9b60cd" x="185.15272" y="146.959573" style="fill: #1f77b4; stroke: #1f77b4"/>
     <use xlink:href="#mf40e9b60cd" x="294.905021" y="179.596599" style="fill: #1f77b4; stroke: #1f77b4"/>
     <use xlink:href="#mf40e9b60cd" x="404.657322" y="224.557917" style="fill: #1f77b4; stroke: #1f77b4"/>
     <use xlink:href="#mf40e9b60cd" x="514.409624" y="255.904974" style="fill: #1f77b4; stroke: #1f77b4"/>
     <use xlink:href="#mf40e9b60cd" x="624.161925" y="270.681329" style="fill: #1f77b4; stroke: #1f77b4"/>
    </g>
   </g>
   <g id="line2d_24">
    <g clip-path="url(#p354c00fae8)">
     <use xlink:href="#mf40e9b60cd" x="75.400419" y="41.710803" style="fill: #1f77b4; stroke: #1f77b4"/>
     <use xlink:href="#mf40e9b60cd" x="185.15272" y="69.965102" style="fill: #1f77b4; stroke: #1f77b4"/>
     <use xlink:href="#mf40e9b60cd" x="294.905021" y="101.009676" style="fill: #1f77b4; stroke: #1f77b4"/>
     <use xlink:href="#mf40e9b60cd" x="404.657322" y="149.167744" style="fill: #1f77b4; stroke: #1f77b4"/>
     <use xlink:href="#mf40e9b60cd" x="514.409624" y="177.114642" style="fill: #1f77b4; stroke: #1f77b4"/>
     <use xlink:href="#mf40e9b60cd" x="624.161925" y="184.603483" style="fill: #1f77b4; stroke: #1f77b4"/>
    </g>
   </g>
   <g id="LineCollection_2">
    <path d="M 75.400419 109.811957 
L 75.400419 74.798684 
" clip-path="url(#p354c00fae8)" style="fill: none; stroke: #ff7f0e; stroke-width: 1.2"/>
    <path d="M 185.15272 167.32751 
L 185.15272 124.614844 
" clip-path="url(#p354c00fae8)" style="fill: none; stroke: #ff7f0e; stroke-width: 1.2"/>
    <path d="M 294.905021 246.27485 
L 294.905021 203.281009 
" clip-path="url(#p354c00fae8)" style="fill: none; stroke: #ff7f0e; stroke-width: 1.2"/>
    <path d="M 404.657322 272.086891 
L 404.657322 220.794296 
" clip-path="url(#p354c00fae8)" style="fill: none; stroke: #ff7f0e; stroke-width: 1.2"/>
    <path d="M 514.409624 318.336022 
L 514.409624 257.438542 
" clip-path="url(#p354c00fae8)" style="fill: none; stroke: #ff7f0e; stroke-width: 1.2"/>
    <path d="M 624.161925 352.726854 
L 624.161925 285.179412 
" clip-path="url(#p354c00fae8)" style="fill: none; stroke: #ff7f0e; stroke-width: 1.2"/>
   </g>
   <g id="line2d_25">
    <defs>
     <path id="maaeb3e2330" d="M 3 0 
L -3 -0 
" style="stroke: #ff7f0e"/>
    </defs>
    <g clip-path="url(#p354c00fae8)">
     <use xlink:href="#maaeb3e2330" x="75.400419" y="109.811957" style="fill: #ff7f0e; stroke: #ff7f0e"/>
     <use xlink:href="#maaeb3e2330" x="185.15272" y="167.32751" style="fill: #ff7f0e; stroke: #ff7f0e"/>
     <use xlink:href="#maaeb3e2330" x="294.905021" y="246.27485" style="fill: #ff7f0e; stroke: #ff7f0e"/>
     <use xlink:href="#maaeb3e2330" x="404.657322" y="272.086891" style="fill: #ff7f0e; stroke: #ff7f0e"/>
     <use xlink:href="#maaeb3e2330" x="514.409624" y="318.336022" style="fill: #ff7f0e; stroke: #ff7f0e"/>
     <use xlink:href="#maaeb3e2330" x="624.161925" y="352.726854" style="fill: #ff7f0e; stroke: #ff7f0e"/>
    </g>
   </g>
   <g id="line2d_26">
    <g clip-path="url(#p354c00fae8)">
     <use xlink:href="#maaeb3e2330" x="75.400419" y="74.798684" style="fill: #ff7f0e; stroke: #ff7f0e"/>
     <use xlink:href="#maaeb3e2330" x="185.15272" y="124.614844" style="fill: #ff7f0e; stroke: #ff7f0e"/>
     <use xlink:href="#maaeb3e2330" x="294.905021" y="203.281009" style="fill: #ff7f0e; stroke: #ff7f0e"/>
     <use xlink:href="#maaeb3e2330" x="404.657322" y="220.794296" style="fill: #ff7f0e; stroke: #ff7f0e"/>
     <use xlink:href="#maaeb3e2330" x="514.409624" y="257.438542" style="fill: #ff7f0e; stroke: #ff7f0e"/>
     <use xlink:href="#maaeb3e2330" x="624.161925" y="285.179412" style="fill: #ff7f0e; stroke: #ff7f0e"/>
    </g>
   </g>
   <g id="LineCollection_3">
    <path d="M 75.400419 162.067463 
L 75.400419 120.652265 
" clip-path="url(#p354c00fae8)" style="fill: none; stroke: #2ca02c; stroke-width: 1.2"/>
    <path d="M 185.15272 167.033358 
L 185.15272 120.224985 
" clip-path="url(#p354c00fae8)" style="fill: none; stroke: #2ca02c; stroke-width: 1.2"/>
    <path d="M 294.905021 254.226689 
L 294.905021 207.336615 
" clip-path="url(#p354c00fae8)" style="fill: none; stroke: #2ca02c; stroke-width: 1.2"/>
    <path d="M 404.657322 269.81663 
L 404.657322 220.045265 
" clip-path="url(#p354c00fae8)" style="fill: none; stroke: #2ca02c; stroke-width: 1.2"/>
    <path d="M 514.409624 294.16373 
L 514.409624 238.648573 
" clip-path="url(#p354c00fae8)" style="fill: none; stroke: #2ca02c; stroke-width: 1.2"/>
    <path d="M 624.161925 311.295329 
L 624.161925 253.696586 
" clip-path="url(#p354c00fae8)" style="fill: none; stroke: #2ca02c; stroke-width: 1.2"/>
   </g>
   <g id="line2d_27">
    <defs>
     <path id="m8287accdc1" d="M 3 0 
L -3 -0 
" style="stroke: #2ca02c"/>
    </defs>
    <g clip-path="url(#p354c00fae8)">
     <use xlink:href="#m8287accdc1" x="75.400419" y="162.067463" style="fill: #2ca02c; stroke: #2ca02c"/>
     <use xlink:href="#m8287accdc1" x="185.15272" y="167.033358" style="fill: #2ca02c; stroke: #2ca02c"/>
     <use xlink:href="#m8287accdc1" x="294.905021" y="254.226689" style="fill: #2ca02c; stroke: #2ca02c"/>
     <use xlink:href="#m8287accdc1" x="404.657322" y="269.81663" style="fill: #2ca02c; stroke: #2ca02c"/>
     <use xlink:href="#m8287accdc1" x="514.409624" y="294.16373" style="fill: #2ca02c; stroke: #2ca02c"/>
     <use xlink:href="#m8287accdc1" x="624.161925" y="311.295329" style="fill: #2ca02c; stroke: #2ca02c"/>
    </g>
   </g>
   <g id="line2d_28">
    <g clip-path="url(#p354c00fae8)">
     <use xlink:href="#m8287accdc1" x="75.400419" y="120.652265" style="fill: #2ca02c; stroke: #2ca02c"/>
     <use xlink:href="#m8287accdc1" x="185.15272" y="120.224985" style="fill: #2ca02c; stroke: #2ca02c"/>
     <use xlink:href="#m8287accdc1" x="294.905021" y="207.336615" style="fill: #2ca02c; stroke: #2ca02c"/>
     <use xlink:href="#m8287accdc1" x="404.657322" y="220.045265" style="fill: #2ca02c; stroke: #2ca02c"/>
     <use xlink:href="#m8287accdc1" x="514.409624" y="238.648573" style="fill: #2ca02c; stroke: #2ca02c"/>
     <use xlink:href="#m8287accdc1" x="624.161925" y="253.696586" style="fill: #2ca02c; stroke: #2ca02c"/>
    </g>
   </g>
   <g id="LineCollection_4">
    <path d="M 75.400419 95.901387 
L 75.400419 52.139278 
" clip-path="url(#p354c00fae8)" style="fill: none; stroke: #d62728; stroke-width: 1.2"/>
    <path d="M 185.15272 113.991841 
L 185.15272 63.946361 
" clip-path="url(#p354c00fae8)" style="fill: none; stroke: #d62728; stroke-width: 1.2"/>
    <path d="M 294.905021 226.803084 
L 294.905021 173.346996 
" clip-path="url(#p354c00fae8)" style="fill: none; stroke: #d62728; stroke-width: 1.2"/>
    <path d="M 404.657322 251.427546 
L 404.657322 192.080006 
" clip-path="url(#p354c00fae8)" style="fill: none; stroke: #d62728; stroke-width: 1.2"/>
    <path d="M 514.409624 269.703006 
L 514.409624 201.083776 
" clip-path="url(#p354c00fae8)" style="fill: none; stroke: #d62728; stroke-width: 1.2"/>
    <path d="M 624.161925 298.635089 
L 624.161925 223.411889 
" clip-path="url(#p354c00fae8)" style="fill: none; stroke: #d62728; stroke-width: 1.2"/>
   </g>
   <g id="line2d_29">
    <defs>
     <path id="m8a59bf8391" d="M 3 0 
L -3 -0 
" style="stroke: #d62728"/>
    </defs>
    <g clip-path="url(#p354c00fae8)">
     <use xlink:href="#m8a59bf8391" x="75.400419" y="95.901387" style="fill: #d62728; stroke: #d62728"/>
     <use xlink:href="#m8a59bf8391" x="185.15272" y="113.991841" style="fill: #d62728; stroke: #d62728"/>
     <use xlink:href="#m8a59bf8391" x="294.905021" y="226.803084" style="fill: #d62728; stroke: #d62728"/>
     <use xlink:href="#m8a59bf8391" x="404.657322" y="251.427546" style="fill: #d62728; stroke: #d62728"/>
     <use xlink:href="#m8a59bf8391" x="514.409624" y="269.703006" style="fill: #d62728; stroke: #d62728"/>
     <use xlink:href="#m8a59bf8391" x="624.161925" y="298.635089" style="fill: #d62728; stroke: #d62728"/>
    </g>
   </g>
   <g id="line2d_30">
    <g clip-path="url(#p354c00fae8)">
     <use xlink:href="#m8a59bf8391" x="75.400419" y="52.139278" style="fill: #d62728; stroke: #d62728"/>
     <use xlink:href="#m8a59bf8391" x="185.15272" y="63.946361" style="fill: #d62728; stroke: #d62728"/>
     <use xlink:href="#m8a59bf8391" x="294.905021" y="173.346996" style="fill: #d62728; stroke: #d62728"/>
     <use xlink:href="#m8a59bf8391" x="404.657322" y="192.080006" style="fill: #d62728; stroke: #d62728"/>
     <use xlink:href="#m8a59bf8391" x="514.409624" y="201.083776" style="fill: #d62728; stroke: #d62728"/>
     <use xlink:href="#m8a59bf8391" x="624.161925" y="223.411889" style="fill: #d62728; stroke: #d62728"/>
    </g>
   </g>
   <g id="line2d_31">
    <path d="M 404.657322 368.277656 
L 404.657322 26.16 
" clip-path="url(#p354c00fae8)" style="fill: none; stroke-dasharray: 3.7,1.6; stroke-dashoffset: 0; stroke: #595959"/>
   </g>
   <g id="line2d_32">
    <path d="M 75.400419 71.468424 
L 185.15272 108.462337 
L 294.905021 140.303137 
L 404.657322 186.86283 
L 514.409624 216.509808 
L 624.161925 227.642406 
" clip-path="url(#p354c00fae8)" style="fill: none; stroke: #1f77b4; stroke-width: 1.2; stroke-linecap: square"/>
    <defs>
     <path id="mbd527d91b6" d="M 0 3 
C 0.795609 3 1.55874 2.683901 2.12132 2.12132 
C 2.683901 1.55874 3 0.795609 3 0 
C 3 -0.795609 2.683901 -1.55874 2.12132 -2.12132 
C 1.55874 -2.683901 0.795609 -3 0 -3 
C -0.795609 -3 -1.55874 -2.683901 -2.12132 -2.12132 
C -2.683901 -1.55874 -3 -0.795609 -3 0 
C -3 0.795609 -2.683901 1.55874 -2.12132 2.12132 
C -1.55874 2.683901 -0.795609 3 0 3 
z
" style="stroke: #1f77b4"/>
    </defs>
    <g clip-path="url(#p354c00fae8)">
     <use xlink:href="#mbd527d91b6" x="75.400419" y="71.468424" style="fill: #1f77b4; stroke: #1f77b4"/>
     <use xlink:href="#mbd527d91b6" x="185.15272" y="108.462337" style="fill: #1f77b4; stroke: #1f77b4"/>
     <use xlink:href="#mbd527d91b6" x="294.905021" y="140.303137" style="fill: #1f77b4; stroke: #1f77b4"/>
     <use xlink:href="#mbd527d91b6" x="404.657322" y="186.86283" style="fill: #1f77b4; stroke: #1f77b4"/>
     <use xlink:href="#mbd527d91b6" x="514.409624" y="216.509808" style="fill: #1f77b4; stroke: #1f77b4"/>
     <use xlink:href="#mbd527d91b6" x="624.161925" y="227.642406" style="fill: #1f77b4; stroke: #1f77b4"/>
    </g>
   </g>
   <g id="line2d_33">
    <path d="M 75.400419 92.305321 
L 185.15272 145.971177 
L 294.905021 224.777929 
L 404.657322 246.440594 
L 514.409624 287.887282 
L 624.161925 318.953133 
" clip-path="url(#p354c00fae8)" style="fill: none; stroke: #ff7f0e; stroke-width: 1.2; stroke-linecap: square"/>
    <defs>
     <path id="mc0957d791a" d="M -3 3 
L 3 3 
L 3 -3 
L -3 -3 
z
" style="stroke: #ff7f0e; stroke-linejoin: miter"/>
    </defs>
    <g clip-path="url(#p354c00fae8)">
     <use xlink:href="#mc0957d791a" x="75.400419" y="92.305321" style="fill: #ff7f0e; stroke: #ff7f0e; stroke-linejoin: miter"/>
     <use xlink:href="#mc0957d791a" x="185.15272" y="145.971177" style="fill: #ff7f0e; stroke: #ff7f0e; stroke-linejoin: miter"/>
     <use xlink:href="#mc0957d791a" x="294.905021" y="224.777929" style="fill: #ff7f0e; stroke: #ff7f0e; stroke-linejoin: miter"/>
     <use xlink:href="#mc0957d791a" x="404.657322" y="246.440594" style="fill: #ff7f0e; stroke: #ff7f0e; stroke-linejoin: miter"/>
     <use xlink:href="#mc0957d791a" x="514.409624" y="287.887282" style="fill: #ff7f0e; stroke: #ff7f0e; stroke-linejoin: miter"/>
     <use xlink:href="#mc0957d791a" x="624.161925" y="318.953133" style="fill: #ff7f0e; stroke: #ff7f0e; stroke-linejoin: miter"/>
    </g>
   </g>
   <g id="line2d_34">
    <path d="M 75.400419 141.359864 
L 185.15272 143.629172 
L 294.905021 230.781652 
L 404.657322 244.930947 
L 514.409624 266.406151 
L 624.161925 282.495958 
" clip-path="url(#p354c00fae8)" style="fill: none; stroke: #2ca02c; stroke-width: 1.2; stroke-linecap: square"/>
    <defs>
     <path id="m80ebbb6649" d="M 0 -3 
L -3 3 
L 3 3 
z
" style="stroke: #2ca02c; stroke-linejoin: miter"/>
    </defs>
    <g clip-path="url(#p354c00fae8)">
     <use xlink:href="#m80ebbb6649" x="75.400419" y="141.359864" style="fill: #2ca02c; stroke: #2ca02c; stroke-linejoin: miter"/>
     <use xlink:href="#m80ebbb6649" x="185.15272" y="143.629172" style="fill: #2ca02c; stroke: #2ca02c; stroke-linejoin: miter"/>
     <use xlink:href="#m80ebbb6649" x="294.905021" y="230.781652" style="fill: #2ca02c; stroke: #2ca02c; stroke-linejoin: miter"/>
     <use xlink:href="#m80ebbb6649" x="404.657322" y="244.930947" style="fill: #2ca02c; stroke: #2ca02c; stroke-linejoin: miter"/>
     <use xlink:href="#m80ebbb6649" x="514.409624" y="266.406151" style="fill: #2ca02c; stroke: #2ca02c; stroke-linejoin: miter"/>
     <use xlink:href="#m80ebbb6649" x="624.161925" y="282.495958" style="fill: #2ca02c; stroke: #2ca02c; stroke-linejoin: miter"/>
    </g>
   </g>
   <g id="line2d_35">
    <path d="M 75.400419 74.020332 
L 185.15272 88.969101 
L 294.905021 200.07504 
L 404.657322 221.753776 
L 514.409624 235.393391 
L 624.161925 261.023489 
" clip-path="url(#p354c00fae8)" style="fill: none; stroke: #d62728; stroke-width: 1.2; stroke-linecap: square"/>
    <defs>
     <path id="mb85363d300" d="M -0 4.242641 
L 4.242641 0 
L 0 -4.242641 
L -4.242641 -0 
z
" style="stroke: #d62728; stroke-linejoin: miter"/>
    </defs>
    <g clip-path="url(#p354c00fae8)">
     <use xlink:href="#mb85363d300" x="75.400419" y="74.020332" style="fill: #d62728; stroke: #d62728; stroke-linejoin: miter"/>
     <use xlink:href="#mb85363d300" x="185.15272" y="88.969101" style="fill: #d62728; stroke: #d62728; stroke-linejoin: miter"/>
     <use xlink:href="#mb85363d300" x="294.905021" y="200.07504" style="fill: #d62728; stroke: #d62728; stroke-linejoin: miter"/>
     <use xlink:href="#mb85363d300" x="404.657322" y="221.753776" style="fill: #d62728; stroke: #d62728; stroke-linejoin: miter"/>
     <use xlink:href="#mb85363d300" x="514.409624" y="235.393391" style="fill: #d62728; stroke: #d62728; stroke-linejoin: miter"/>
     <use xlink:href="#mb85363d300" x="624.161925" y="261.023489" style="fill: #d62728; stroke: #d62728; stroke-linejoin: miter"/>
    </g>
   </g>
   <g id="patch_3">
    <path d="M 47.962344 368.277656 
L 47.962344 26.16 
" style="fill: none; stroke: #000000; stroke-width: 0.8; stroke-linejoin: miter; stroke-linecap: square"/>
   </g>
   <g id="patch_4">
    <path d="M 651.6 368.277656 
L 651.6 26.16 
" style="fill: none; stroke: #000000; stroke-width: 0.8; stroke-linejoin: miter; stroke-linecap: square"/>
   </g>
   <g id="patch_5">
    <path d="M 47.962344 368.277656 
L 651.6 368.277656 
" style="fill: none; stroke: #000000; stroke-width: 0.8; stroke-linejoin: miter; stroke-linecap: square"/>
   </g>
   <g id="patch_6">
    <path d="M 47.962344 26.16 
L 651.6 26.16 
" style="fill: none; stroke: #000000; stroke-width: 0.8; stroke-linejoin: miter; stroke-linecap: square"/>
   </g>
   <g id="text_14">
    <!-- TOI-3505.01 depth changes with aperture size -->
    <g transform="translate(210.253047 20.16) scale(0.12 -0.12)">
     <defs>
      <path id="DejaVuSans-2c" d="M 628 4666 
L 1259 4666 
L 1259 0 
L 628 0 
L 628 4666 
z
" transform="scale(0.015625)"/>
      <path id="DejaVuSans-10" d="M 313 2009 
L 1997 2009 
L 1997 1497 
L 313 1497 
L 313 2009 
z
" transform="scale(0.015625)"/>
      <path id="DejaVuSans-51" d="M 3513 2113 
L 3513 0 
L 2938 0 
L 2938 2094 
Q 2938 2591 2744 2837 
Q 2550 3084 2163 3084 
Q 1697 3084 1428 2787 
Q 1159 2491 1159 1978 
L 1159 0 
L 581 0 
L 581 3500 
L 1159 3500 
L 1159 2956 
Q 1366 3272 1645 3428 
Q 1925 3584 2291 3584 
Q 2894 3584 3203 3211 
Q 3513 2838 3513 2113 
z
" transform="scale(0.015625)"/>
      <path id="DejaVuSans-4a" d="M 2906 1791 
Q 2906 2416 2648 2759 
Q 2391 3103 1925 3103 
Q 1463 3103 1205 2759 
Q 947 2416 947 1791 
Q 947 1169 1205 825 
Q 1463 481 1925 481 
Q 2391 481 2648 825 
Q 2906 1169 2906 1791 
z
M 3481 434 
Q 3481 -459 3084 -895 
Q 2688 -1331 1869 -1331 
Q 1566 -1331 1297 -1286 
Q 1028 -1241 775 -1147 
L 775 -588 
Q 1028 -725 1275 -790 
Q 1522 -856 1778 -856 
Q 2344 -856 2625 -561 
Q 2906 -266 2906 331 
L 2906 616 
Q 2728 306 2450 153 
Q 2172 0 1784 0 
Q 1141 0 747 490 
Q 353 981 353 1791 
Q 353 2603 747 3093 
Q 1141 3584 1784 3584 
Q 2172 3584 2450 3431 
Q 2728 3278 2906 2969 
L 2906 3500 
L 3481 3500 
L 3481 434 
z
" transform="scale(0.015625)"/>
      <path id="DejaVuSans-5a" d="M 269 3500 
L 844 3500 
L 1563 769 
L 2278 3500 
L 2956 3500 
L 3675 769 
L 4391 3500 
L 4966 3500 
L 4050 0 
L 3372 0 
L 2619 2869 
L 1863 0 
L 1184 0 
L 269 3500 
z
" transform="scale(0.015625)"/>
      <path id="DejaVuSans-5d" d="M 353 3500 
L 3084 3500 
L 3084 2975 
L 922 459 
L 3084 459 
L 3084 0 
L 275 0 
L 275 525 
L 2438 3041 
L 353 3041 
L 353 3500 
z
" transform="scale(0.015625)"/>
     </defs>
     <use xlink:href="#DejaVuSans-37"/>
     <use xlink:href="#DejaVuSans-32" transform="translate(61.078125 0)"/>
     <use xlink:href="#DejaVuSans-2c" transform="translate(139.796875 0)"/>
     <use xlink:href="#DejaVuSans-10" transform="translate(169.296875 0)"/>
     <use xlink:href="#DejaVuSans-16" transform="translate(205.375 0)"/>
     <use xlink:href="#DejaVuSans-18" transform="translate(269 0)"/>
     <use xlink:href="#DejaVuSans-13" transform="translate(332.625 0)"/>
     <use xlink:href="#DejaVuSans-18" transform="translate(396.25 0)"/>
     <use xlink:href="#DejaVuSans-11" transform="translate(459.875 0)"/>
     <use xlink:href="#DejaVuSans-13" transform="translate(491.65625 0)"/>
     <use xlink:href="#DejaVuSans-14" transform="translate(555.28125 0)"/>
     <use xlink:href="#DejaVuSans-3" transform="translate(618.90625 0)"/>
     <use xlink:href="#DejaVuSans-47" transform="translate(650.6875 0)"/>
     <use xlink:href="#DejaVuSans-48" transform="translate(714.171875 0)"/>
     <use xlink:href="#DejaVuSans-53" transform="translate(775.703125 0)"/>
     <use xlink:href="#DejaVuSans-57" transform="translate(839.1875 0)"/>
     <use xlink:href="#DejaVuSans-4b" transform="translate(878.390625 0)"/>
     <use xlink:href="#DejaVuSans-3" transform="translate(941.765625 0)"/>
     <use xlink:href="#DejaVuSans-46" transform="translate(973.546875 0)"/>
     <use xlink:href="#DejaVuSans-4b" transform="translate(1028.53125 0)"/>
     <use xlink:href="#DejaVuSans-44" transform="translate(1091.90625 0)"/>
     <use xlink:href="#DejaVuSans-51" transform="translate(1153.1875 0)"/>
     <use xlink:href="#DejaVuSans-4a" transform="translate(1216.5625 0)"/>
     <use xlink:href="#DejaVuSans-48" transform="translate(1280.046875 0)"/>
     <use xlink:href="#DejaVuSans-56" transform="translate(1341.578125 0)"/>
     <use xlink:href="#DejaVuSans-3" transform="translate(1393.671875 0)"/>
     <use xlink:href="#DejaVuSans-5a" transform="translate(1425.453125 0)"/>
     <use xlink:href="#DejaVuSans-4c" transform="translate(1507.234375 0)"/>
     <use xlink:href="#DejaVuSans-57" transform="translate(1535.015625 0)"/>
     <use xlink:href="#DejaVuSans-4b" transform="translate(1574.21875 0)"/>
     <use xlink:href="#DejaVuSans-3" transform="translate(1637.59375 0)"/>
     <use xlink:href="#DejaVuSans-44" transform="translate(1669.375 0)"/>
     <use xlink:href="#DejaVuSans-53" transform="translate(1730.65625 0)"/>
     <use xlink:href="#DejaVuSans-48" transform="translate(1794.140625 0)"/>
     <use xlink:href="#DejaVuSans-55" transform="translate(1855.671875 0)"/>
     <use xlink:href="#DejaVuSans-57" transform="translate(1896.78125 0)"/>
     <use xlink:href="#DejaVuSans-58" transform="translate(1935.984375 0)"/>
     <use xlink:href="#DejaVuSans-55" transform="translate(1999.359375 0)"/>
     <use xlink:href="#DejaVuSans-48" transform="translate(2038.265625 0)"/>
     <use xlink:href="#DejaVuSans-3" transform="translate(2099.796875 0)"/>
     <use xlink:href="#DejaVuSans-56" transform="translate(2131.578125 0)"/>
     <use xlink:href="#DejaVuSans-4c" transform="translate(2183.671875 0)"/>
     <use xlink:href="#DejaVuSans-5d" transform="translate(2211.453125 0)"/>
     <use xlink:href="#DejaVuSans-48" transform="translate(2263.9375 0)"/>
    </g>
   </g>
   <g id="legend_1">
    <g id="patch_7">
     <path d="M 468.49375 64.161563 
L 644.6 64.161563 
Q 646.6 64.161563 646.6 62.161563 
L 646.6 33.16 
Q 646.6 31.16 644.6 31.16 
L 468.49375 31.16 
Q 466.49375 31.16 466.49375 33.16 
L 466.49375 62.161563 
Q 466.49375 64.161563 468.49375 64.161563 
z
" style="fill: #ffffff; opacity: 0.8; stroke: #cccccc; stroke-linejoin: miter"/>
    </g>
    <g id="LineCollection_5">
     <path d="M 480.49375 44.258438 
L 480.49375 34.258438 
" style="fill: none; stroke: #1f77b4; stroke-width: 1.2"/>
    </g>
    <g id="line2d_36">
     <g>
      <use xlink:href="#mf40e9b60cd" x="480.49375" y="44.258438" style="fill: #1f77b4; stroke: #1f77b4"/>
     </g>
    </g>
    <g id="line2d_37">
     <g>
      <use xlink:href="#mf40e9b60cd" x="480.49375" y="34.258438" style="fill: #1f77b4; stroke: #1f77b4"/>
     </g>
    </g>
    <g id="line2d_38">
     <path d="M 470.49375 39.258438 
L 490.49375 39.258438 
" style="fill: none; stroke: #1f77b4; stroke-width: 1.2; stroke-linecap: square"/>
    </g>
    <g id="line2d_39">
     <g>
      <use xlink:href="#mbd527d91b6" x="480.49375" y="39.258438" style="fill: #1f77b4; stroke: #1f77b4"/>
     </g>
    </g>
    <g id="text_15">
     <!-- Sector 14 -->
     <g transform="translate(498.49375 42.758438) scale(0.1 -0.1)">
      <use xlink:href="#DejaVuSans-36"/>
      <use xlink:href="#DejaVuSans-48" transform="translate(63.484375 0)"/>
      <use xlink:href="#DejaVuSans-46" transform="translate(125.015625 0)"/>
      <use xlink:href="#DejaVuSans-57" transform="translate(180 0)"/>
      <use xlink:href="#DejaVuSans-52" transform="translate(219.203125 0)"/>
      <use xlink:href="#DejaVuSans-55" transform="translate(280.390625 0)"/>
      <use xlink:href="#DejaVuSans-3" transform="translate(321.5 0)"/>
      <use xlink:href="#DejaVuSans-14" transform="translate(353.28125 0)"/>
      <use xlink:href="#DejaVuSans-17" transform="translate(416.90625 0)"/>
     </g>
    </g>
    <g id="LineCollection_6">
     <path d="M 480.49375 59.259219 
L 480.49375 49.259219 
" style="fill: none; stroke: #ff7f0e; stroke-width: 1.2"/>
    </g>
    <g id="line2d_40">
     <g>
      <use xlink:href="#maaeb3e2330" x="480.49375" y="59.259219" style="fill: #ff7f0e; stroke: #ff7f0e"/>
     </g>
    </g>
    <g id="line2d_41">
     <g>
      <use xlink:href="#maaeb3e2330" x="480.49375" y="49.259219" style="fill: #ff7f0e; stroke: #ff7f0e"/>
     </g>
    </g>
    <g id="line2d_42">
     <path d="M 470.49375 54.259219 
L 490.49375 54.259219 
" style="fill: none; stroke: #ff7f0e; stroke-width: 1.2; stroke-linecap: square"/>
    </g>
    <g id="line2d_43">
     <g>
      <use xlink:href="#mc0957d791a" x="480.49375" y="54.259219" style="fill: #ff7f0e; stroke: #ff7f0e; stroke-linejoin: miter"/>
     </g>
    </g>
    <g id="text_16">
     <!-- Sector 41 -->
     <g transform="translate(498.49375 57.759219) scale(0.1 -0.1)">
      <use xlink:href="#DejaVuSans-36"/>
      <use xlink:href="#DejaVuSans-48" transform="translate(63.484375 0)"/>
      <use xlink:href="#DejaVuSans-46" transform="translate(125.015625 0)"/>
      <use xlink:href="#DejaVuSans-57" transform="translate(180 0)"/>
      <use xlink:href="#DejaVuSans-52" transform="translate(219.203125 0)"/>
      <use xlink:href="#DejaVuSans-55" transform="translate(280.390625 0)"/>
      <use xlink:href="#DejaVuSans-3" transform="translate(321.5 0)"/>
      <use xlink:href="#DejaVuSans-17" transform="translate(353.28125 0)"/>
      <use xlink:href="#DejaVuSans-14" transform="translate(416.90625 0)"/>
     </g>
    </g>
    <g id="LineCollection_7">
     <path d="M 576.546875 44.258438 
L 576.546875 34.258438 
" style="fill: none; stroke: #2ca02c; stroke-width: 1.2"/>
    </g>
    <g id="line2d_44">
     <g>
      <use xlink:href="#m8287accdc1" x="576.546875" y="44.258438" style="fill: #2ca02c; stroke: #2ca02c"/>
     </g>
    </g>
    <g id="line2d_45">
     <g>
      <use xlink:href="#m8287accdc1" x="576.546875" y="34.258438" style="fill: #2ca02c; stroke: #2ca02c"/>
     </g>
    </g>
    <g id="line2d_46">
     <path d="M 566.546875 39.258438 
L 586.546875 39.258438 
" style="fill: none; stroke: #2ca02c; stroke-width: 1.2; stroke-linecap: square"/>
    </g>
    <g id="line2d_47">
     <g>
      <use xlink:href="#m80ebbb6649" x="576.546875" y="39.258438" style="fill: #2ca02c; stroke: #2ca02c; stroke-linejoin: miter"/>
     </g>
    </g>
    <g id="text_17">
     <!-- Sector 54 -->
     <g transform="translate(594.546875 42.758438) scale(0.1 -0.1)">
      <use xlink:href="#DejaVuSans-36"/>
      <use xlink:href="#DejaVuSans-48" transform="translate(63.484375 0)"/>
      <use xlink:href="#DejaVuSans-46" transform="translate(125.015625 0)"/>
      <use xlink:href="#DejaVuSans-57" transform="translate(180 0)"/>
      <use xlink:href="#DejaVuSans-52" transform="translate(219.203125 0)"/>
      <use xlink:href="#DejaVuSans-55" transform="translate(280.390625 0)"/>
      <use xlink:href="#DejaVuSans-3" transform="translate(321.5 0)"/>
      <use xlink:href="#DejaVuSans-18" transform="translate(353.28125 0)"/>
      <use xlink:href="#DejaVuSans-17" transform="translate(416.90625 0)"/>
     </g>
    </g>
    <g id="LineCollection_8">
     <path d="M 576.546875 59.259219 
L 576.546875 49.259219 
" style="fill: none; stroke: #d62728; stroke-width: 1.2"/>
    </g>
    <g id="line2d_48">
     <g>
      <use xlink:href="#m8a59bf8391" x="576.546875" y="59.259219" style="fill: #d62728; stroke: #d62728"/>
     </g>
    </g>
    <g id="line2d_49">
     <g>
      <use xlink:href="#m8a59bf8391" x="576.546875" y="49.259219" style="fill: #d62728; stroke: #d62728"/>
     </g>
    </g>
    <g id="line2d_50">
     <path d="M 566.546875 54.259219 
L 586.546875 54.259219 
" style="fill: none; stroke: #d62728; stroke-width: 1.2; stroke-linecap: square"/>
    </g>
    <g id="line2d_51">
     <g>
      <use xlink:href="#mb85363d300" x="576.546875" y="54.259219" style="fill: #d62728; stroke: #d62728; stroke-linejoin: miter"/>
     </g>
    </g>
    <g id="text_18">
     <!-- Sector 81 -->
     <g transform="translate(594.546875 57.759219) scale(0.1 -0.1)">
      <defs>
       <path id="DejaVuSans-1b" d="M 2034 2216 
Q 1584 2216 1326 1975 
Q 1069 1734 1069 1313 
Q 1069 891 1326 650 
Q 1584 409 2034 409 
Q 2484 409 2743 651 
Q 3003 894 3003 1313 
Q 3003 1734 2745 1975 
Q 2488 2216 2034 2216 
z
M 1403 2484 
Q 997 2584 770 2862 
Q 544 3141 544 3541 
Q 544 4100 942 4425 
Q 1341 4750 2034 4750 
Q 2731 4750 3128 4425 
Q 3525 4100 3525 3541 
Q 3525 3141 3298 2862 
Q 3072 2584 2669 2484 
Q 3125 2378 3379 2068 
Q 3634 1759 3634 1313 
Q 3634 634 3220 271 
Q 2806 -91 2034 -91 
Q 1263 -91 848 271 
Q 434 634 434 1313 
Q 434 1759 690 2068 
Q 947 2378 1403 2484 
z
M 1172 3481 
Q 1172 3119 1398 2916 
Q 1625 2713 2034 2713 
Q 2441 2713 2670 2916 
Q 2900 3119 2900 3481 
Q 2900 3844 2670 4047 
Q 2441 4250 2034 4250 
Q 1625 4250 1398 4047 
Q 1172 3844 1172 3481 
z
" transform="scale(0.015625)"/>
      </defs>
      <use xlink:href="#DejaVuSans-36"/>
      <use xlink:href="#DejaVuSans-48" transform="translate(63.484375 0)"/>
      <use xlink:href="#DejaVuSans-46" transform="translate(125.015625 0)"/>
      <use xlink:href="#DejaVuSans-57" transform="translate(180 0)"/>
      <use xlink:href="#DejaVuSans-52" transform="translate(219.203125 0)"/>
      <use xlink:href="#DejaVuSans-55" transform="translate(280.390625 0)"/>
      <use xlink:href="#DejaVuSans-3" transform="translate(321.5 0)"/>
      <use xlink:href="#DejaVuSans-1b" transform="translate(353.28125 0)"/>
      <use xlink:href="#DejaVuSans-14" transform="translate(416.90625 0)"/>
     </g>
    </g>
   </g>
  </g>
 </g>
 <defs>
  <clipPath id="p354c00fae8">
   <rect x="47.962344" y="26.16" width="603.637656" height="342.117656"/>
  </clipPath>
 </defs>
</svg>
